<svg id="svg" version="1.1" xmlns="http://www.w3.org/2000/svg" xmlns:xlink="http://www.w3.org/1999/xlink" width="400" height="400" viewBox="0, 0, 400,400"><g id="svgg"><path id="path0" d="M185.000 40.130 C 175.546 43.260,170.392 54.544,173.000 66.400 C 173.922 70.591,173.760 76.296,172.569 81.583 C 171.191 87.699,171.248 87.613,163.799 94.972 C 157.328 101.365,154.420 105.074,152.405 109.505 C 151.931 110.547,151.361 111.736,151.139 112.146 C 150.182 113.916,146.720 124.756,144.130 134.095 C 143.597 136.018,142.711 139.210,142.161 141.190 C 141.611 143.170,140.699 146.458,140.134 148.495 C 138.592 154.059,135.588 168.162,133.807 178.200 C 131.940 188.718,130.388 194.177,127.835 199.200 C 122.334 210.022,124.024 219.636,131.445 219.743 C 137.809 219.835,140.433 215.690,141.412 204.000 C 141.763 199.805,142.322 196.600,143.191 193.800 C 143.601 192.480,144.517 189.510,145.227 187.200 C 145.937 184.890,147.135 181.200,147.888 179.000 C 148.642 176.800,149.601 173.920,150.020 172.600 C 151.870 166.774,152.537 164.875,153.396 163.000 C 153.900 161.900,154.428 160.655,154.569 160.233 C 154.772 159.629,154.930 159.570,155.313 159.956 C 156.684 161.334,154.908 185.452,153.052 190.667 C 152.726 191.583,152.338 193.203,152.190 194.267 C 152.043 195.330,151.586 197.554,151.176 199.209 C 150.168 203.273,148.917 213.780,148.187 224.316 C 147.856 229.092,147.404 233.990,147.182 235.200 C 146.961 236.410,146.508 239.828,146.176 242.796 C 145.844 245.764,145.325 249.274,145.022 250.596 C 144.718 251.918,144.350 254.080,144.202 255.400 C 143.527 261.433,142.039 266.246,140.068 268.771 C 135.577 274.523,133.908 277.316,127.984 289.000 C 122.940 298.948,119.733 305.021,118.797 306.400 C 118.423 306.950,117.236 308.746,116.159 310.392 C 115.081 312.037,112.967 314.737,111.461 316.392 C 103.812 324.790,104.696 328.122,117.607 339.561 C 119.693 341.409,122.116 343.569,122.990 344.361 C 127.964 348.863,130.726 350.199,135.058 350.199 C 141.970 350.201,142.452 347.389,136.256 343.200 C 134.989 342.343,132.400 339.213,132.400 338.538 C 132.400 338.416,131.960 337.440,131.422 336.369 C 130.884 335.297,130.130 332.962,129.747 331.180 C 128.649 326.069,128.659 326.045,138.194 312.200 C 139.860 309.780,141.657 307.170,142.187 306.400 C 142.716 305.630,144.512 303.020,146.177 300.600 C 155.659 286.817,164.000 273.682,164.000 272.533 C 164.000 272.379,164.349 271.521,164.775 270.626 C 165.859 268.352,168.800 260.826,169.865 257.600 C 170.192 256.610,170.740 255.170,171.082 254.400 C 171.425 253.630,171.942 252.190,172.232 251.200 C 172.522 250.210,173.312 247.870,173.988 246.000 C 174.663 244.130,176.037 240.170,177.040 237.200 C 179.521 229.856,181.063 227.561,181.811 230.100 C 182.676 233.035,195.661 258.593,198.830 263.600 C 199.039 263.930,199.565 264.920,199.999 265.800 C 200.432 266.680,201.300 268.300,201.928 269.400 C 202.555 270.500,203.755 272.660,204.595 274.200 C 205.434 275.740,207.367 279.250,208.890 282.000 C 210.412 284.750,212.280 288.620,213.040 290.600 C 216.279 299.034,223.148 313.078,228.596 322.400 C 228.917 322.950,229.554 324.120,230.011 325.000 C 230.468 325.880,231.359 327.500,231.991 328.600 C 234.082 332.236,235.513 335.504,235.963 337.666 C 238.117 348.020,241.251 349.049,252.558 343.118 C 254.431 342.136,263.835 339.092,269.000 337.797 C 270.320 337.466,272.570 336.912,274.000 336.566 C 282.554 334.495,284.812 332.102,280.751 329.415 C 278.471 327.906,276.721 327.710,267.375 327.915 C 258.080 328.118,254.413 327.740,252.308 326.361 C 248.602 323.931,242.852 311.743,236.193 292.200 C 235.668 290.660,234.681 287.870,233.999 286.000 C 233.317 284.130,232.506 281.790,232.197 280.800 C 231.311 277.960,229.415 272.871,228.024 269.600 C 226.610 266.276,225.474 263.226,224.523 260.200 C 224.177 259.100,223.577 257.390,223.190 256.400 C 222.804 255.410,222.358 253.970,222.200 253.200 C 222.042 252.430,221.592 250.990,221.199 250.000 C 220.806 249.010,219.455 244.960,218.197 241.000 C 216.940 237.040,215.580 232.900,215.177 231.800 C 214.773 230.700,214.259 229.170,214.034 228.400 C 213.810 227.630,212.982 225.200,212.194 223.000 C 211.406 220.800,210.523 218.190,210.233 217.200 C 209.943 216.210,209.425 214.770,209.082 214.000 C 208.740 213.230,208.189 211.790,207.860 210.800 C 206.465 206.614,205.561 204.153,205.160 203.451 C 204.925 203.040,204.492 201.960,204.199 201.051 C 203.628 199.283,201.907 194.967,200.990 193.000 C 198.887 188.494,198.800 188.069,198.800 182.323 C 198.800 173.474,199.409 173.336,209.460 179.914 C 220.454 187.107,224.864 190.953,228.593 196.600 C 232.257 202.148,233.181 202.800,237.387 202.800 C 249.234 202.800,249.718 192.099,238.138 186.200 C 233.683 183.931,231.197 182.159,226.627 177.997 C 225.542 177.009,221.582 173.405,217.827 169.989 C 214.072 166.574,208.513 161.353,205.474 158.387 L 199.948 152.996 199.384 148.998 C 199.074 146.799,198.533 141.580,198.184 137.400 C 197.834 133.220,197.384 129.058,197.184 128.152 C 196.984 127.245,196.538 124.095,196.195 121.152 C 195.851 118.208,195.319 114.810,195.012 113.600 C 194.706 112.390,194.329 110.500,194.175 109.400 C 194.021 108.300,193.578 106.500,193.190 105.400 C 189.173 94.021,190.501 82.800,195.864 82.800 C 206.466 82.800,212.478 57.768,204.605 46.408 C 200.842 40.977,191.488 37.982,185.000 40.130 " stroke="none" fill="#f9fafc" fill-rule="evenodd"></path><path id="path1" d="M0.000 200.000 L 0.000 400.000 200.000 400.000 L 400.000 400.000 400.000 200.000 L 400.000 0.000 200.000 0.000 L 0.000 0.000 0.000 200.000 M198.175 41.158 C 205.740 44.807,209.000 52.087,208.016 63.141 C 206.995 74.606,201.930 82.800,195.864 82.800 C 190.501 82.800,189.173 94.021,193.190 105.400 C 193.578 106.500,194.021 108.300,194.175 109.400 C 194.329 110.500,194.706 112.390,195.012 113.600 C 195.319 114.810,195.851 118.208,196.195 121.152 C 196.538 124.095,196.984 127.245,197.184 128.152 C 197.384 129.058,197.834 133.220,198.184 137.400 C 198.533 141.580,199.074 146.799,199.384 148.998 L 199.948 152.996 205.474 158.387 C 208.513 161.353,214.072 166.574,217.827 169.989 C 221.582 173.405,225.542 177.009,226.627 177.997 C 231.197 182.159,233.683 183.931,238.138 186.200 C 249.718 192.099,249.234 202.800,237.387 202.800 C 233.181 202.800,232.257 202.148,228.593 196.600 C 224.312 190.118,214.200 182.002,203.071 176.116 C 199.309 174.127,198.800 174.868,198.800 182.323 C 198.800 188.069,198.887 188.494,200.990 193.000 C 201.907 194.967,203.628 199.283,204.199 201.051 C 204.492 201.960,204.925 203.040,205.160 203.451 C 205.561 204.153,206.465 206.614,207.860 210.800 C 208.189 211.790,208.740 213.230,209.082 214.000 C 209.425 214.770,209.943 216.210,210.233 217.200 C 210.523 218.190,211.406 220.800,212.194 223.000 C 212.982 225.200,213.810 227.630,214.034 228.400 C 214.259 229.170,214.773 230.700,215.177 231.800 C 215.580 232.900,216.940 237.040,218.197 241.000 C 219.455 244.960,220.806 249.010,221.199 250.000 C 221.592 250.990,222.042 252.430,222.200 253.200 C 222.358 253.970,222.804 255.410,223.190 256.400 C 223.577 257.390,224.177 259.100,224.523 260.200 C 225.474 263.226,226.610 266.276,228.024 269.600 C 229.415 272.871,231.311 277.960,232.197 280.800 C 232.506 281.790,233.317 284.130,233.999 286.000 C 234.681 287.870,235.668 290.660,236.193 292.200 C 242.852 311.743,248.602 323.931,252.308 326.361 C 254.413 327.740,258.080 328.118,267.375 327.915 C 276.721 327.710,278.471 327.906,280.751 329.415 C 284.812 332.102,282.554 334.495,274.000 336.566 C 272.570 336.912,270.320 337.466,269.000 337.797 C 263.835 339.092,254.431 342.136,252.558 343.118 C 241.251 349.049,238.117 348.020,235.963 337.666 C 235.513 335.504,234.082 332.236,231.991 328.600 C 231.359 327.500,230.468 325.880,230.011 325.000 C 229.554 324.120,228.917 322.950,228.596 322.400 C 223.148 313.078,216.279 299.034,213.040 290.600 C 212.280 288.620,210.412 284.750,208.890 282.000 C 207.367 279.250,205.434 275.740,204.595 274.200 C 203.755 272.660,202.555 270.500,201.928 269.400 C 201.300 268.300,200.432 266.680,199.999 265.800 C 199.565 264.920,199.039 263.930,198.830 263.600 C 195.661 258.593,182.676 233.035,181.811 230.100 C 181.063 227.561,179.521 229.856,177.040 237.200 C 176.037 240.170,174.663 244.130,173.988 246.000 C 173.312 247.870,172.522 250.210,172.232 251.200 C 171.942 252.190,171.425 253.630,171.082 254.400 C 170.740 255.170,170.192 256.610,169.865 257.600 C 168.800 260.826,165.859 268.352,164.775 270.626 C 164.349 271.521,164.000 272.379,164.000 272.533 C 164.000 273.682,155.659 286.817,146.177 300.600 C 144.512 303.020,142.716 305.630,142.187 306.400 C 141.657 307.170,139.860 309.780,138.194 312.200 C 128.659 326.045,128.649 326.069,129.747 331.180 C 130.130 332.962,130.884 335.297,131.422 336.369 C 131.960 337.440,132.400 338.416,132.400 338.538 C 132.400 339.213,134.989 342.343,136.256 343.200 C 142.452 347.389,141.970 350.201,135.058 350.199 C 130.726 350.199,127.964 348.863,122.990 344.361 C 122.116 343.569,119.693 341.409,117.607 339.561 C 104.696 328.122,103.812 324.790,111.461 316.392 C 112.967 314.737,115.081 312.037,116.159 310.392 C 117.236 308.746,118.423 306.950,118.797 306.400 C 119.733 305.021,122.940 298.948,127.984 289.000 C 133.908 277.316,135.577 274.523,140.068 268.771 C 142.039 266.246,143.527 261.433,144.202 255.400 C 144.350 254.080,144.718 251.918,145.022 250.596 C 145.325 249.274,145.844 245.764,146.176 242.796 C 146.508 239.828,146.961 236.410,147.182 235.200 C 147.404 233.990,147.856 229.092,148.187 224.316 C 148.917 213.780,150.168 203.273,151.176 199.209 C 151.586 197.554,152.043 195.330,152.190 194.267 C 152.338 193.203,152.726 191.583,153.052 190.667 C 154.908 185.452,156.684 161.334,155.313 159.956 C 154.930 159.570,154.772 159.629,154.569 160.233 C 154.428 160.655,153.900 161.900,153.396 163.000 C 152.537 164.875,151.870 166.774,150.020 172.600 C 149.601 173.920,148.642 176.800,147.888 179.000 C 147.135 181.200,145.937 184.890,145.227 187.200 C 144.517 189.510,143.601 192.480,143.191 193.800 C 142.322 196.600,141.763 199.805,141.412 204.000 C 140.433 215.690,137.809 219.835,131.445 219.743 C 124.024 219.636,122.334 210.022,127.835 199.200 C 130.388 194.177,131.940 188.718,133.807 178.200 C 135.588 168.162,138.592 154.059,140.134 148.495 C 140.699 146.458,141.611 143.170,142.161 141.190 C 142.711 139.210,143.597 136.018,144.130 134.095 C 146.720 124.756,150.182 113.916,151.139 112.146 C 151.361 111.736,151.931 110.547,152.405 109.505 C 154.420 105.074,157.328 101.365,163.799 94.972 C 171.248 87.613,171.191 87.699,172.569 81.583 C 173.760 76.296,173.922 70.591,173.000 66.400 C 170.392 54.544,175.546 43.260,185.000 40.130 C 188.060 39.117,195.077 39.664,198.175 41.158 " stroke="none" fill="#047bf4" fill-rule="evenodd"></path></g></svg>