<?xml version="1.0" encoding="UTF-8" standalone="no"?>
<!-- Created with Inkscape (http://www.inkscape.org/) -->
<svg
   xmlns:svg="http://www.w3.org/2000/svg"
   xmlns="http://www.w3.org/2000/svg"
   version="1.0"
   width="1133.8583"
   height="186.37794"
   id="svg2">
  <defs
     id="defs4" />
  <g
     transform="translate(-296.75906,406.01626)"
     id="layer1">
    <g
       transform="matrix(1.4019682,0,0,1.4019682,-83.854624,152.26698)"
       id="g7813">
      <path
         d="M 296.75906,-290.57138 L 296.75906,-372.84236 L 874.6198,-372.84236 C 876.32326,-372.39905 877.36175,-372.24717 878.39615,-370.69148 L 878.83946,-370.69148 C 880.31716,-372.24717 881.72508,-372.91624 882.98112,-372.91624 C 887.70976,-372.77258 890.22185,-363.52874 883.0509,-361.16032 C 883.0509,-359.09153 885.48911,-352.44188 887.27056,-351.92469 C 888.67027,-354.65843 889.62667,-357.46606 891.62567,-359.90837 C 893.32913,-364.71501 890.06998,-372.84236 896.35021,-372.91624 C 896.79762,-372.91624 897.24093,-372.84236 897.76223,-372.77258 C 902.78641,-371.06912 901.96957,-363.01155 897.31892,-361.09053 C 896.28864,-358.13924 897.83201,-355.17152 898.87051,-352.14634 C 898.94029,-350.73842 898.35331,-343.34992 900.86951,-342.31963 C 903.00807,-347.04827 903.89058,-352.44188 906.3329,-356.95708 C 913.20831,-362.78168 912.91277,-360.05204 912.765,-368.93056 C 913.50385,-371.58631 915.57263,-372.84236 917.56752,-372.84236 C 919.56242,-372.84236 921.1099,-371.66841 921.70509,-369.07422 C 921.70509,-365.2322 921.92674,-362.78168 917.78918,-361.97716 C 916.45514,-360.93866 918.89335,-352.88109 920.08372,-351.33361 L 920.52293,-351.33361 C 924.29106,-357.83549 922.88314,-369.43954 928.13308,-372.6207 C 928.80626,-372.77258 929.32345,-372.84236 929.91043,-372.84236 C 936.56008,-372.91624 935.89512,-362.42457 931.09259,-361.38607 C 928.50661,-358.79599 932.79194,-352.14634 933.83044,-349.48238 C 933.83044,-344.68395 931.16237,-343.9451 936.19476,-339.87322 C 938.63707,-338.17386 943.88291,-336.25285 943.58326,-332.62838 C 939.37592,-329.82485 937.74224,-337.73466 932.93971,-337.73466 C 932.93971,-328.42514 937.74224,-317.26029 941.81413,-309.05906 C 947.79882,-315.85237 952.96666,-322.43635 950.45047,-332.0373 C 950.45047,-335.36623 952.53156,-338.62128 952.01437,-341.9461 L 951.64494,-341.9461 C 950.16314,-338.32984 949.05486,-335.14868 948.68544,-331.07679 C 947.42939,-326.57802 943.06196,-328.63859 945.58226,-332.41083 C 945.94758,-342.16776 947.13385,-354.29311 955.48286,-360.72111 C 956.81279,-362.7119 955.92617,-364.93256 955.56085,-367.15321 C 955.56085,-370.92135 957.62963,-372.84236 959.92006,-372.84236 C 963.39677,-372.84236 967.30857,-368.77458 963.61842,-362.93766 C 962.95346,-362.2768 961.98885,-361.60773 961.02013,-361.52974 C 960.58503,-361.16032 959.39876,-345.86611 962.88367,-345.05338 C 965.01813,-346.60496 967.08691,-348.14834 969.1598,-349.63425 C 969.82476,-349.63425 976.10499,-341.20725 977.66068,-339.28214 C 976.32665,-337.65667 973.97053,-336.10919 972.34096,-334.77105 C 972.03721,-332.18917 970.78527,-331.07679 968.41684,-331.67198 C 960.88467,-325.32197 966.13051,-329.45132 961.47165,-330.64169 C 961.47165,-324.72679 961.10633,-318.50813 960.95035,-312.37978 C 959.33309,-307.79891 958.36848,-300.84961 958.66402,-295.67766 C 960.65891,-293.9742 961.39776,-293.01369 964.2054,-292.64427 C 964.87036,-292.34462 965.31367,-292.27895 965.23979,-291.16656 C 964.79648,-290.86692 963.39677,-290.57138 961.61532,-290.57138 C 958.43826,-290.57138 954.16114,-290.79714 952.96666,-290.86692 C 952.60134,-292.42261 952.8271,-294.12197 952.74501,-295.59967 C 950.393,-295.59967 945.65615,-292.94391 943.28772,-291.9793 C 941.28872,-293.01369 942.54477,-297.29902 940.18455,-297.8901 C 939.21994,-296.9337 939.74124,-294.19585 940.41031,-292.86592 C 941.59247,-292.27895 942.03168,-292.5006 942.70075,-291.31434 C 942.47499,-290.79714 943.28772,-290.57138 941.4406,-290.57138 C 939.59758,-290.57138 932.12698,-297.8901 933.75245,-300.03687 C 935.09059,-300.92349 936.92951,-301.884 937.67246,-303.28781 C 934.71296,-310.15912 930.35374,-316.44756 927.69388,-323.31887 L 927.39423,-323.31887 C 924.22128,-314.37467 917.48953,-307.42948 914.97744,-298.4114 C 914.97744,-294.42161 920.97034,-299.00659 920.97034,-295.46011 C 919.92774,-294.78693 918.97134,-294.19585 918.01083,-293.53089 L 918.01083,-293.16557 C 918.97134,-292.20506 920.81436,-293.30923 920.52293,-291.16656 C 919.78408,-290.79714 918.01083,-290.57138 916.01594,-290.57138 C 912.68701,-290.57138 908.77521,-291.0229 908.25391,-291.38822 C 908.18002,-292.79614 908.18002,-293.90031 908.18002,-295.30002 L 907.88448,-295.52989 C 906.3329,-294.19585 900.56986,-290.57138 897.16705,-290.57138 C 896.50619,-290.57138 895.911,-290.86692 895.46359,-291.16656 C 889.77854,-291.16656 883.56399,-290.65347 877.79686,-290.86692 L 877.65729,-290.57138 L 296.75906,-290.57138 z M 857.68781,-298.02556 C 858.32405,-296.26874 860.00698,-295.08247 861.85411,-295.08247 C 864.30052,-295.08247 866.30363,-297.11841 866.30363,-299.61819 C 866.30363,-302.11797 864.30052,-304.15802 861.85411,-304.15802 C 859.40769,-304.15802 857.40869,-302.11797 857.40869,-299.61819 C 857.40869,-299.09279 857.50721,-298.52633 857.68781,-298.02556 z M 858.16807,-298.22259 C 858.74273,-296.66279 860.24916,-295.59967 861.89105,-295.59967 C 864.06245,-295.59967 865.85211,-297.41806 865.85211,-299.65103 C 865.85211,-301.87579 864.06245,-303.68187 861.89105,-303.68187 C 859.69913,-303.68187 857.91768,-301.87579 857.91768,-299.65103 C 857.91768,-299.17078 858.00798,-298.67 858.16807,-298.22259 z M 947.65515,-298.04198 C 948.98508,-297.96809 951.49307,-298.11586 952.90509,-298.48529 C 953.70962,-302.4053 953.7835,-309.05906 953.7835,-313.11863 C 950.31091,-309.64603 938.85873,-301.59256 947.65515,-298.04198 z M 1015.8674,-291.0229 C 1017.1974,-291.0229 1018.3878,-290.65347 1019.1266,-291.90542 C 1018.0142,-294.71715 1015.1327,-294.63916 1016.0891,-298.19385 C 1020.6002,-305.65214 1026.1457,-311.71481 1028.7358,-319.92426 L 1029.175,-319.92426 C 1032.0606,-314.23101 1036.194,-308.90308 1038.7102,-302.8445 C 1040.1141,-300.18464 1042.7,-297.08147 1043.2952,-293.90031 C 1044.777,-291.0229 1052.7566,-295.01269 1054.9732,-295.89521 C 1054.9732,-298.11586 1049.949,-297.29902 1048.8407,-297.29902 C 1044.4774,-298.4114 1041.5959,-310.3151 1040.5574,-314.44856 C 1037.5281,-321.91505 1034.0473,-329.00801 1034.0473,-336.91782 C 1036.6415,-336.91782 1040.1141,-333.37134 1041.4481,-331.07679 C 1045.2121,-330.85924 1045.4379,-333.30155 1043.2213,-335.514 C 1034.6425,-340.9035 1033.9077,-341.9461 1033.5424,-351.55116 C 1032.3561,-356.64922 1029.4048,-358.72211 1033.7599,-361.97716 C 1038.2628,-367.96184 1033.9898,-372.84236 1031.1001,-372.84236 C 1028.2145,-372.84236 1027.1021,-371.21689 1027.1021,-367.00544 C 1027.4797,-363.97616 1027.2581,-362.34658 1026.0061,-359.46506 C 1020.161,-349.86001 1018.4575,-339.06048 1014.8413,-328.71658 C 1014.3241,-325.46564 1016.3887,-324.57902 1019.0568,-326.64369 C 1019.496,-329.82485 1019.6397,-333.59709 1021.2734,-336.47451 L 1021.4129,-336.25285 C 1020.8998,-329.6032 1020.5222,-322.43635 1019.0568,-315.85237 C 1016.6145,-310.01135 1013.733,-304.90918 1010.4738,-299.22824 C 1008.1834,-297.52889 1014.4677,-291.60988 1015.8674,-291.0229 z M 991.4033,-290.86692 C 991.48129,-290.72325 998.72612,-290.72325 999.68663,-291.24455 C 999.3172,-292.64427 995.69273,-294.12197 995.02777,-294.42161 C 992.14625,-298.11586 994.43669,-309.86358 996.42748,-312.82309 C 998.95188,-315.19151 998.95188,-315.2654 999.16943,-318.95555 C 999.09144,-321.77139 995.69273,-340.98149 996.28381,-341.64646 C 998.05705,-341.20725 999.60864,-339.512 1000.9386,-337.95631 C 1001.9771,-336.10919 1002.4984,-331.67198 1005.0064,-335.43601 C 1005.0064,-338.69106 997.46597,-343.9451 997.46597,-347.12216 C 998.05705,-348.37821 998.64403,-349.70814 999.3172,-351.04217 C 999.3172,-354.65843 993.48029,-359.83449 996.80101,-362.49435 C 999.46497,-363.15932 999.53475,-364.93256 999.76051,-367.44465 C 999.3172,-371.21689 997.76562,-372.84236 995.99238,-372.84236 C 994.06316,-372.84236 991.9287,-370.69148 991.18575,-367.07933 C 990.81632,-363.60673 989.56027,-360.72111 987.9348,-357.46606 C 986.37501,-349.9339 983.20206,-343.27603 982.01579,-335.514 C 981.42882,-334.62738 980.39032,-333.44522 980.39032,-332.48471 C 983.64537,-329.96852 986.60898,-341.57257 987.55307,-343.9451 L 988.07847,-344.01488 C 987.9348,-342.68495 987.77882,-341.4207 987.71315,-340.0292 C 985.04508,-333.0799 988.07847,-327.16499 991.03387,-320.80267 C 992.66755,-315.78259 981.13328,-306.02977 977.0696,-303.66545 C 976.55241,-302.62695 981.0635,-293.457 982.76285,-295.15636 C 982.61098,-297.59867 982.16767,-300.03687 982.16767,-302.24932 C 983.57559,-303.87889 987.41761,-307.50337 989.70805,-307.50337 C 989.77372,-303.43558 990.37301,-298.8465 989.70805,-294.71715 C 989.33452,-293.67866 988.52178,-292.12707 989.48639,-291.0229 C 990.07747,-291.0229 990.74244,-290.94491 991.4033,-290.86692 z M 875.1452,-356.43578 L 876.47103,-358.35268 C 878.6178,-360.79499 878.54392,-361.60773 878.54392,-364.78889 L 878.39615,-364.93256 C 878.02262,-364.26349 877.65729,-363.67241 877.36175,-363.01155 C 875.28887,-360.57334 873.21598,-360.86888 875.1452,-356.43578 z M 904.70742,-318.44245 C 905.30261,-317.91705 907.66693,-328.71658 906.26311,-328.71658 C 905.8157,-328.1255 905.74181,-327.02133 905.22462,-326.20859 C 898.87051,-323.6924 904.70742,-337.13537 899.3877,-337.13537 C 898.94029,-330.41183 902.04756,-324.43125 904.70742,-318.44245 z M 917.34587,-316.73899 C 917.78918,-316.2259 922.37005,-334.69716 922.37005,-338.39962 C 919.85796,-340.76394 919.92774,-340.83783 918.66759,-343.34992 L 918.1586,-343.34992 C 916.82867,-334.40162 916.97644,-325.83506 917.34587,-316.73899 z M 895.54158,-306.53876 C 896.57597,-306.90818 899.3877,-310.38488 899.3877,-311.56294 C 897.61446,-314.82209 895.46359,-317.03864 894.50719,-320.43325 L 894.21165,-320.43325 C 893.69035,-318.66411 892.65596,-316.52144 892.65596,-314.44856 C 893.55079,-311.93647 894.9546,-309.42848 895.54158,-306.53876 z M 908.84499,-306.32121 L 909.06664,-306.32121 C 909.66183,-307.86869 910.10514,-312.00625 909.73571,-313.34439 L 909.36218,-313.34439 C 908.69722,-312.60143 908.03225,-311.7928 907.36729,-310.97596 C 907.66693,-309.57625 908.03225,-307.79891 908.84499,-306.32121 z M 878.39615,-304.76962 L 878.54392,-304.69163 C 881.49932,-306.69063 879.57831,-309.86358 877.50952,-311.93647 C 876.32326,-310.68863 877.94873,-306.69063 878.39615,-304.76962 z M 881.56499,-297.00348 C 882.45982,-296.78593 882.0904,-298.55096 881.94263,-298.78083 L 881.42954,-298.78083 C 881.20378,-298.19385 880.53471,-297.44679 881.56499,-297.00348 z M 899.83101,-296.85571 C 902.12555,-296.78593 904.3421,-297.08147 906.55866,-296.9337 L 906.77621,-297.29902 C 905.67203,-299.96299 904.11634,-302.47508 902.8603,-304.8394 C 901.89979,-305.06106 893.62057,-298.63306 899.83101,-296.85571 z M 892.43841,-293.30923 C 893.03359,-293.30923 893.03359,-293.30923 893.25114,-293.37901 C 893.25114,-297.00348 888.07919,-299.44579 891.39991,-302.24932 C 891.69955,-303.66545 889.40912,-307.79891 888.74415,-308.09445 C 885.48911,-305.80401 885.93242,-301.21493 887.04069,-297.44679 C 887.63177,-297.00348 892.36042,-296.04298 889.48711,-294.34362 L 889.48711,-293.9742 C 890.14386,-293.53089 891.4779,-293.37901 892.43841,-293.30923 z M 874.84556,-295.30002 L 875.1452,-295.30002 C 874.84556,-297.44679 874.25448,-297.00348 875.28887,-298.92039 C 874.91944,-300.84961 874.11081,-302.62695 873.51563,-304.25653 L 873.1462,-304.25653 C 871.1472,-299.74133 870.92555,-298.48529 874.84556,-295.30002 z M 863.03627,-296.97885 C 863.68892,-297.18409 864.48524,-297.96399 864.17738,-298.51813 L 863.80796,-298.69873 L 863.52884,-298.54686 C 863.24971,-298.3252 863.31129,-298.239 862.85156,-297.96399 L 862.08397,-297.72181 L 861.40669,-297.8039 L 860.69247,-298.29237 L 860.42156,-298.82187 L 860.33126,-299.52789 C 860.33126,-300.09023 860.45029,-300.52534 860.69247,-300.82908 C 860.93875,-301.13283 861.47237,-301.453 861.87053,-301.40785 C 862.60527,-301.32576 862.57243,-301.453 863.03627,-300.95223 C 863.27845,-300.70594 863.47137,-300.32831 863.80796,-300.70594 L 863.99267,-301.1 C 863.84079,-301.6254 863.5001,-301.99893 862.9788,-302.17954 L 862.01419,-302.33962 C 861.43953,-302.33962 860.93875,-302.24521 860.53239,-301.99893 C 860.1055,-301.74444 859.79764,-301.40785 859.5842,-300.97685 C 859.36665,-300.54586 859.27634,-300.0574 859.27634,-299.49915 C 859.27634,-298.67 859.49389,-298.05019 859.98646,-297.55762 C 860.45029,-297.06505 861.09473,-296.82287 861.95673,-296.82287 C 862.35899,-296.82287 862.69968,-296.88034 863.03627,-296.97885"
         id="path7748"
         style="fill:#00458d;fill-opacity:1;fill-rule:evenodd;stroke:none" />
      <path
         d="M 638.48325,-298.80546 C 652.16429,-298.50582 666.64986,-298.80546 680.39248,-298.80546 C 680.39248,-298.88345 684.68192,-301.02612 685.42077,-301.61309 C 687.93286,-303.82964 694.29107,-314.39931 690.88826,-316.61586 C 688.89336,-316.32032 684.53825,-310.77894 682.24371,-308.85382 C 677.21953,-305.68087 660.5133,-299.40064 659.47481,-308.77994 L 661.24805,-329.7756 C 663.69036,-334.06093 673.3693,-332.21791 676.25902,-328.58934 C 677.00198,-327.03365 677.36319,-325.03465 678.17593,-323.19162 C 682.68292,-320.17055 682.38738,-342.78758 682.02206,-344.55671 C 679.50996,-345.88664 678.76701,-343.30067 678.03226,-341.37555 C 674.85521,-336.87267 666.05878,-336.27748 662.80374,-337.60741 L 664.35122,-359.19416 C 669.52728,-361.26294 682.83069,-361.70214 686.31149,-355.86523 C 686.97646,-353.94421 686.2335,-346.33406 690.36285,-349.95032 C 690.52704,-352.09298 690.67071,-354.31774 690.88826,-356.46041 C 691.25768,-359.03818 693.03913,-365.10496 689.33257,-365.47849 C 673.59506,-365.47849 657.92733,-365.47849 642.18161,-365.47849 C 637.37908,-362.73653 646.09751,-360.81552 647.43565,-359.71135 C 648.46183,-358.45531 648.6917,-357.41681 648.90925,-355.64357 L 645.43255,-309.52289 C 645.21089,-307.15036 643.58953,-305.23346 641.80808,-303.75165 C 640.19082,-302.79936 633.97216,-300.43504 638.48325,-298.80546"
         id="path7752"
         style="fill:#ffffff;fill-opacity:1;fill-rule:evenodd;stroke:none" />
      <path
         d="M 779.96076,-298.50581 C 791.33905,-295.62429 799.69627,-316.47219 794.22468,-316.47219 C 790.82596,-312.69994 788.08401,-309.74865 783.79868,-306.93691 C 778.99205,-304.79014 765.24533,-300.65669 763.69784,-307.81943 C 763.25864,-314.69484 764.80202,-322.90018 765.47108,-329.54573 C 766.8708,-333.76949 776.70982,-331.69661 779.735,-329.2543 C 780.69551,-327.92847 783.06393,-318.61485 785.05472,-324.67753 C 785.57602,-330.88387 786.31077,-337.24209 786.53242,-343.30066 C 785.27227,-347.73376 782.62062,-342.27038 782.02544,-340.78447 C 778.99205,-337.30776 770.12584,-334.95165 766.36181,-337.6854 C 766.8708,-344.40894 767.3962,-351.13247 767.90929,-357.86012 C 769.23512,-361.04538 778.77039,-359.85912 781.06904,-359.78113 C 785.79768,-359.41581 789.86135,-359.26804 791.04351,-353.79644 C 791.19128,-351.20636 790.23488,-348.91592 793.33805,-348.91592 C 794.80755,-349.43312 797.32785,-363.92279 794.29856,-365.32661 C 778.40507,-365.32661 762.43769,-365.32661 746.5442,-365.32661 C 745.21427,-364.58776 744.6314,-363.85301 745.50981,-362.30143 C 749.42982,-359.78113 752.16768,-361.70214 753.05019,-355.64357 L 748.83874,-307.23245 C 748.17378,-305.45511 747.5868,-304.79014 746.105,-303.60798 C 744.99672,-302.94302 738.12542,-300.20927 742.6324,-298.65768 C 755.04509,-298.65768 767.53987,-298.5879 779.96076,-298.50581"
         id="path7756"
         style="fill:#ffffff;fill-opacity:1;fill-rule:evenodd;stroke:none" />
      <path
         d="M 825.40827,-297.91063 C 839.60651,-297.54531 851.21056,-302.72137 859.48569,-314.69485 C 860.52418,-316.98939 860.01109,-318.61486 857.48669,-317.20694 C 848.69847,-309.52289 841.1581,-303.82964 829.03685,-306.19807 C 825.40827,-307.67987 823.49547,-309.15347 820.8315,-311.66556 C 806.56759,-330.00136 816.25063,-368.86899 844.84824,-360.30654 C 851.28445,-357.26904 856.09519,-350.98881 858.89461,-344.26117 C 860.01109,-342.85736 861.11526,-342.04462 862.07577,-344.33506 C 861.85822,-350.69327 861.71455,-357.12127 861.56268,-363.47949 C 859.33792,-365.62215 857.79044,-361.04539 856.31274,-361.04539 C 856.31274,-360.96329 856.31274,-360.96329 854.16596,-361.48459 C 847.95962,-364.00079 842.71789,-365.47849 835.98204,-365.99568 C 812.63026,-365.17884 798.5798,-349.43312 798.5798,-325.92947 C 799.47052,-309.67066 809.4491,-299.98352 825.40827,-297.91063"
         id="path7760"
         style="fill:#ffffff;fill-opacity:1;fill-rule:evenodd;stroke:none" />
      <path
         d="M 715.65616,-297.91063 C 727.55575,-297.54531 738.1952,-304.04719 740.92894,-316.32032 C 742.48463,-328.15423 739.30758,-333.6874 728.65582,-338.49814 C 719.05077,-342.41405 704.34354,-345.14779 711.44061,-357.93811 C 719.27242,-365.77403 730.2854,-360.30654 735.60922,-352.09298 C 736.19209,-350.61939 737.97765,-341.23188 741.44614,-345.5911 C 742.18499,-348.32485 741.44614,-353.64867 741.44614,-356.46041 C 741.59801,-362.00179 742.78017,-365.10496 737.08692,-362.4451 C 734.64872,-362.73653 719.79372,-366.59087 717.20364,-365.99568 C 715.50018,-365.62215 713.80493,-365.77403 712.10557,-364.8792 C 698.5764,-361.85402 695.1818,-340.34116 706.41232,-330.88388 C 714.98299,-325.49027 743.74068,-320.01867 726.66913,-304.56849 C 722.67113,-302.42583 718.97688,-302.20417 714.53968,-302.79936 C 706.0429,-305.38944 702.64419,-312.25664 699.61079,-319.8668 C 697.91144,-320.75752 697.02482,-320.75752 696.28597,-319.13616 C 696.28597,-314.18176 697.69389,-308.11087 698.43274,-303.09079 C 699.39324,-300.5787 711.51039,-298.50581 715.65616,-297.91063"
         id="path7764"
         style="fill:#ffffff;fill-opacity:1;fill-rule:evenodd;stroke:none" />
      <path
         d="M 575.06937,-298.65769 L 624.21523,-298.43603 C 628.13934,-298.43603 631.24252,-299.17489 630.95108,-301.68698 C 629.17373,-304.79015 623.03717,-300.87014 623.03717,-308.85382 C 624.44099,-324.89098 625.84891,-340.78447 627.24451,-356.75185 C 627.54826,-357.41681 627.8438,-358.08178 628.13934,-358.67286 C 629.76071,-360.59387 638.33548,-363.70525 633.82849,-365.47849 C 624.3671,-365.47849 614.97549,-365.47849 605.60031,-365.47849 C 604.26627,-365.17884 603.74908,-362.95819 605.22678,-362.30143 C 611.13758,-360.51998 612.5455,-360.74164 612.5455,-353.72256 C 611.58499,-339.09332 609.80765,-324.304 608.5516,-309.52289 C 608.03441,-306.41972 607.52132,-303.46432 604.18828,-302.42583 C 600.1246,-302.65159 599.09432,-303.60799 597.38265,-307.23246 C 590.65501,-326.08135 583.86169,-344.92203 577.12994,-363.77913 C 576.69074,-364.58776 576.32131,-365.17884 575.878,-365.62215 C 574.77793,-365.62215 574.55217,-365.10496 573.96109,-364.362 C 562.94812,-345.96053 553.33486,-326.2989 541.80058,-308.11087 C 539.22282,-304.85993 537.66713,-303.46432 534.12065,-301.16568 C 532.11754,-297.76286 538.03655,-298.88345 557.1071,-298.88345 C 560.21027,-301.54331 551.41385,-303.82964 550.01414,-304.42072 C 546.16801,-308.04109 551.63961,-318.61486 555.77717,-320.75752 C 562.13539,-321.27472 568.48539,-321.13105 574.9216,-320.90529 C 580.53686,-319.72313 583.3486,-307.89742 580.16333,-303.82964 C 579.64614,-303.46432 571.29713,-300.20928 575.06937,-298.65769 z M 561.76596,-326.22912 C 563.75675,-326.22912 575.58246,-325.70782 576.03398,-326.96387 C 575.73434,-328.58934 570.04519,-347.29456 567.67676,-344.92203 C 567.52899,-344.77837 558.0676,-328.81099 558.0676,-326.66833 C 558.95422,-326.2989 560.57559,-326.2989 561.76596,-326.22912"
         id="path7768"
         style="fill:#ffffff;fill-opacity:1;fill-rule:evenodd;stroke:none" />
    </g>
  </g>
</svg>
