<?xml version="1.0" encoding="utf-8"?>
<!-- Generator: Adobe Illustrator 19.0.0, SVG Export Plug-In . SVG Version: 6.00 Build 0)  -->
<svg version="1.1" id="layer" xmlns="http://www.w3.org/2000/svg" xmlns:xlink="http://www.w3.org/1999/xlink" x="0px" y="0px"
	 viewBox="-153 -46 652 652" style="enable-background:new -153 -46 652 652;" xml:space="preserve">
<style type="text/css">
	.st0{fill:#FF0000;}
</style>
<title>epfl-logo-new</title>
<path class="st0" d="M-131.8,259.4h37.6v-38.8h88.5v-32.2h-126.1V259.4z M-131.8,362.7H-5.7v-32.2h-88.5v-38.8h-37.6V362.7z
	 M-94.2,259.4h81v32.2h-81V259.4z M151.1,204.3c-5.3-5.1-11.7-9.1-18.7-11.6c-9-3.2-18.5-4.7-28-4.4H26.6v174.4h37.6v-71.1h40.3
	c9.5,0.2,18.9-1.3,27.8-4.4c7-2.5,13.4-6.5,18.8-11.6c4.7-4.6,8.3-10.3,10.5-16.4c4.4-12.4,4.4-25.9,0-38.2
	C159.4,214.7,155.8,209,151.1,204.3z M124.8,249.9c-1.9,2.6-4.5,4.6-7.4,5.9c-3.4,1.5-7.1,2.4-10.8,2.8c-4.2,0.5-8.5,0.7-12.7,0.7
	H64.2v-38.8h29.8c4.2,0,8.5,0.2,12.7,0.7c3.7,0.4,7.3,1.3,10.8,2.8c2.9,1.3,5.5,3.3,7.4,5.9c2,2.9,3,6.4,2.8,9.9
	C127.8,243.5,126.8,247,124.8,249.9z M379.7,330.4V188.3h-37.6v174.4h126.1v-32.2H379.7z M188.7,259.4h37.6v-38.8h88.5v-32.2H188.7
	V259.4z M188.7,291.6h37.6v71.1h-37.6V291.6z M226.3,259.4h81v32.2h-81V259.4z"/>
</svg>
