<svg id="svg" version="1.1" xmlns="http://www.w3.org/2000/svg" xmlns:xlink="http://www.w3.org/1999/xlink" width="400" height="400" viewBox="0, 0, 400,400"><g id="svgg"><path id="path0" d="M176.775 1.000 C 176.223 1.550,173.873 2.123,171.553 2.273 C 164.587 2.724,156.757 4.244,155.264 5.436 C 154.492 6.051,152.598 6.225,151.054 5.821 C 149.270 5.354,147.278 6.055,145.590 7.743 C 143.832 9.501,142.486 9.952,141.610 9.076 C 140.201 7.667,134.667 9.851,134.667 11.816 C 134.667 12.397,132.983 12.624,130.924 12.322 C 128.581 11.978,126.526 12.563,125.428 13.886 C 124.463 15.049,122.228 16.000,120.462 16.000 C 118.695 16.000,116.904 16.900,116.482 18.000 C 116.060 19.100,114.372 20.000,112.731 20.000 C 111.089 20.000,108.661 21.200,107.333 22.667 C 106.006 24.133,103.906 25.333,102.667 25.333 C 101.427 25.333,99.327 26.533,98.000 28.000 C 96.673 29.467,94.780 30.667,93.793 30.667 C 92.807 30.667,90.854 31.812,89.454 33.212 C 88.054 34.612,85.804 35.966,84.454 36.220 C 83.104 36.474,81.418 38.004,80.707 39.620 C 79.996 41.236,78.196 42.732,76.707 42.946 C 75.218 43.159,73.418 44.659,72.707 46.279 C 71.996 47.899,70.196 49.399,68.707 49.612 C 67.218 49.826,65.408 51.350,64.684 53.000 C 63.960 54.650,62.582 56.000,61.622 56.000 C 60.662 56.000,58.899 57.703,57.704 59.785 C 56.509 61.866,54.287 64.116,52.766 64.785 C 51.245 65.453,49.808 67.350,49.574 69.000 C 49.340 70.650,48.237 72.000,47.125 72.000 C 46.012 72.000,44.422 73.800,43.592 76.000 C 42.761 78.200,41.283 80.000,40.306 80.000 C 39.330 80.000,37.653 82.100,36.581 84.667 C 35.508 87.233,34.050 89.333,33.341 89.333 C 32.631 89.333,31.685 90.789,31.239 92.569 C 30.792 94.348,29.281 96.841,27.880 98.109 C 26.479 99.376,25.333 101.323,25.333 102.435 C 25.333 103.547,24.332 105.563,23.109 106.914 C 21.886 108.266,20.802 110.490,20.702 111.855 C 20.601 113.221,19.456 115.402,18.156 116.701 C 16.856 118.001,16.074 120.141,16.419 121.456 C 16.763 122.773,15.910 124.875,14.522 126.131 C 13.135 127.386,12.000 129.785,12.000 131.461 C 12.000 133.138,11.400 134.880,10.667 135.333 C 9.933 135.787,9.333 137.887,9.333 140.000 C 9.333 142.113,8.733 144.213,8.000 144.667 C 7.267 145.120,6.667 147.520,6.667 150.000 C 6.667 152.480,6.146 154.831,5.510 155.224 C 4.299 155.973,2.478 166.378,2.599 171.862 C 2.637 173.619,1.980 175.887,1.139 176.901 C 0.007 178.265,-0.007 179.591,1.087 181.992 C 1.901 183.777,2.061 185.550,1.443 185.932 C -0.023 186.838,-0.023 213.162,1.443 214.068 C 2.061 214.450,1.894 216.238,1.072 218.042 C -0.130 220.679,-0.003 221.787,1.721 223.692 C 3.095 225.210,3.453 226.728,2.717 227.919 C 2.067 228.970,2.096 231.167,2.784 232.976 C 3.453 234.734,4.000 237.899,4.000 240.008 C 4.000 242.117,4.600 244.213,5.333 244.667 C 6.067 245.120,6.667 247.520,6.667 250.000 C 6.667 252.480,7.319 254.912,8.116 255.405 C 8.913 255.898,9.277 257.405,8.924 258.755 C 8.571 260.105,9.100 262.287,10.099 263.605 C 11.098 264.922,11.934 267.257,11.958 268.793 C 11.981 270.330,13.135 272.614,14.522 273.869 C 15.910 275.125,16.763 277.227,16.419 278.544 C 16.074 279.859,16.856 281.999,18.156 283.299 C 19.456 284.598,20.601 286.779,20.702 288.145 C 20.802 289.510,21.886 291.734,23.109 293.086 C 24.332 294.437,25.333 296.453,25.333 297.565 C 25.333 298.677,26.479 300.624,27.880 301.891 C 29.281 303.159,30.792 305.652,31.239 307.431 C 31.685 309.211,32.631 310.667,33.341 310.667 C 34.050 310.667,35.508 312.767,36.581 315.333 C 37.653 317.900,39.330 320.000,40.306 320.000 C 41.283 320.000,42.761 321.800,43.592 324.000 C 44.422 326.200,46.012 328.000,47.125 328.000 C 48.237 328.000,49.340 329.350,49.574 331.000 C 49.808 332.650,51.245 334.547,52.766 335.215 C 54.287 335.884,56.509 338.134,57.704 340.215 C 58.899 342.297,60.662 344.000,61.622 344.000 C 62.582 344.000,63.960 345.350,64.684 347.000 C 65.408 348.650,67.218 350.174,68.707 350.388 C 70.196 350.601,71.996 352.101,72.707 353.721 C 73.418 355.341,75.350 356.858,77.000 357.093 C 78.650 357.327,80.000 358.390,80.000 359.455 C 80.000 360.519,81.642 362.128,83.648 363.029 C 85.655 363.930,88.355 365.717,89.648 367.000 C 90.942 368.283,92.807 369.333,93.793 369.333 C 94.780 369.333,96.673 370.533,98.000 372.000 C 99.327 373.467,101.276 374.667,102.330 374.667 C 103.384 374.667,105.772 375.867,107.636 377.333 C 109.501 378.800,111.888 380.000,112.942 380.000 C 113.995 380.000,115.757 380.900,116.857 382.000 C 117.957 383.100,120.057 384.000,121.524 384.000 C 122.990 384.000,125.122 384.932,126.261 386.071 C 127.400 387.210,129.608 387.960,131.166 387.738 C 132.725 387.515,135.081 388.414,136.402 389.735 C 137.840 391.173,139.801 391.820,141.289 391.347 C 142.657 390.913,144.161 391.183,144.633 391.946 C 145.105 392.709,147.520 393.333,150.000 393.333 C 152.480 393.333,154.904 393.972,155.387 394.753 C 155.870 395.534,157.930 395.999,159.966 395.785 C 162.001 395.571,164.634 396.200,165.816 397.181 C 167.118 398.261,169.311 398.627,171.377 398.108 C 173.254 397.637,175.512 397.710,176.395 398.270 C 178.697 399.731,213.164 400.020,214.050 398.586 C 214.463 397.918,215.942 398.107,217.395 399.015 C 219.446 400.295,220.556 400.294,222.613 399.010 C 224.058 398.107,226.964 397.726,229.117 398.157 C 231.349 398.603,233.397 398.309,233.917 397.468 C 234.416 396.660,236.853 396.000,239.333 396.000 C 241.813 396.000,244.213 395.400,244.667 394.667 C 245.120 393.933,247.520 393.333,250.000 393.333 C 252.480 393.333,254.905 392.692,255.390 391.909 C 255.874 391.126,256.989 390.761,257.869 391.098 C 258.748 391.436,260.937 390.898,262.734 389.903 C 264.530 388.908,267.277 388.073,268.837 388.047 C 270.397 388.021,272.420 387.100,273.333 386.000 C 274.246 384.900,276.377 384.000,278.068 384.000 C 279.759 384.000,282.043 383.100,283.143 382.000 C 284.243 380.900,286.005 380.000,287.058 380.000 C 288.112 380.000,290.499 378.800,292.364 377.333 C 294.228 375.867,296.636 374.667,297.714 374.667 C 298.792 374.667,300.449 373.732,301.397 372.590 C 302.345 371.447,305.119 369.678,307.561 368.658 C 310.002 367.637,312.000 366.172,312.000 365.401 C 312.000 364.631,312.795 364.000,313.768 364.000 C 314.740 364.000,316.944 362.500,318.667 360.667 C 320.389 358.833,322.580 357.333,323.535 357.333 C 324.490 357.333,326.194 355.926,327.321 354.206 C 328.448 352.485,330.862 350.398,332.685 349.567 C 334.508 348.737,336.000 347.287,336.000 346.345 C 336.000 345.403,337.350 344.040,339.000 343.316 C 340.650 342.592,342.549 340.749,343.221 339.221 C 343.893 337.693,345.693 335.893,347.221 335.221 C 348.749 334.549,350.174 332.782,350.388 331.293 C 350.601 329.804,352.101 328.004,353.721 327.293 C 355.341 326.582,356.858 324.650,357.093 323.000 C 357.327 321.350,358.408 320.000,359.494 320.000 C 360.581 320.000,362.347 317.900,363.419 315.333 C 364.492 312.767,365.950 310.667,366.659 310.667 C 367.369 310.667,368.315 309.211,368.761 307.431 C 369.208 305.652,370.719 303.159,372.120 301.891 C 373.521 300.624,374.667 298.573,374.667 297.333 C 374.667 296.094,375.904 293.961,377.415 292.592 C 378.927 291.224,379.892 289.065,379.560 287.795 C 379.228 286.524,380.091 284.458,381.478 283.202 C 382.865 281.947,384.000 279.586,384.000 277.957 C 384.000 276.327,384.900 274.246,386.000 273.333 C 387.100 272.420,388.000 270.526,388.000 269.123 C 388.000 267.720,388.971 265.091,390.158 263.280 C 391.805 260.766,391.954 259.552,390.790 258.149 C 389.617 256.735,389.735 256.131,391.299 255.531 C 392.537 255.056,393.350 253.036,393.376 250.375 C 393.399 247.969,394.258 244.892,395.284 243.537 C 396.310 242.182,396.823 240.222,396.423 239.180 C 396.023 238.138,396.451 235.463,397.374 233.235 C 398.622 230.223,398.665 228.799,397.544 227.677 C 396.423 226.556,396.598 225.549,398.230 223.746 C 400.000 221.790,400.135 220.690,398.928 218.042 C 398.106 216.238,397.939 214.450,398.557 214.068 C 400.023 213.162,400.023 186.838,398.557 185.932 C 397.939 185.550,398.106 183.762,398.928 181.958 C 400.135 179.310,400.000 178.210,398.230 176.254 C 396.567 174.416,396.410 173.457,397.582 172.285 C 398.754 171.113,398.750 169.909,397.564 167.307 C 396.704 165.419,396.000 162.138,396.000 160.016 C 396.000 157.894,395.466 155.828,394.814 155.424 C 393.713 154.744,392.639 149.992,391.541 140.944 C 391.292 138.897,390.394 136.527,389.544 135.678 C 388.695 134.828,388.000 132.827,388.000 131.230 C 388.000 129.633,387.100 127.580,386.000 126.667 C 384.900 125.754,384.000 123.574,384.000 121.824 C 384.000 120.073,382.874 117.677,381.499 116.499 C 380.123 115.321,379.260 113.353,379.581 112.126 C 379.902 110.899,378.927 108.776,377.415 107.408 C 375.904 106.039,374.667 103.906,374.667 102.667 C 374.667 101.427,373.467 99.327,372.000 98.000 C 370.533 96.673,369.333 94.774,369.333 93.780 C 369.333 92.787,368.133 90.946,366.667 89.691 C 365.200 88.435,364.000 86.684,364.000 85.800 C 364.000 84.917,362.566 83.066,360.814 81.687 C 359.062 80.309,357.408 78.016,357.140 76.591 C 356.871 75.166,355.329 73.418,353.713 72.707 C 352.097 71.996,350.601 70.196,350.388 68.707 C 350.174 67.218,348.749 65.451,347.221 64.779 C 345.693 64.107,343.893 62.307,343.221 60.779 C 342.549 59.251,340.687 57.424,339.082 56.719 C 337.477 56.015,335.872 54.320,335.514 52.954 C 335.157 51.587,333.648 50.151,332.161 49.762 C 330.674 49.373,328.516 47.617,327.365 45.861 C 326.214 44.104,324.455 42.667,323.456 42.667 C 322.457 42.667,320.657 41.167,319.456 39.333 C 318.255 37.500,316.086 36.000,314.636 36.000 C 313.186 36.000,312.000 35.369,312.000 34.599 C 312.000 33.828,310.002 32.363,307.561 31.342 C 305.119 30.322,302.345 28.553,301.397 27.410 C 300.449 26.268,298.640 25.333,297.377 25.333 C 296.114 25.333,293.994 24.133,292.667 22.667 C 291.339 21.200,288.911 20.000,287.269 20.000 C 285.628 20.000,283.940 19.100,283.518 18.000 C 283.079 16.856,281.089 16.000,278.872 16.000 C 276.739 16.000,274.222 15.071,273.280 13.936 C 272.338 12.800,270.314 12.050,268.783 12.269 C 267.253 12.488,264.904 11.570,263.564 10.230 C 262.224 8.890,260.242 8.133,259.160 8.549 C 258.079 8.964,255.730 8.344,253.940 7.172 C 252.151 5.999,249.707 5.416,248.508 5.876 C 247.309 6.336,245.655 6.173,244.831 5.514 C 243.336 4.318,236.230 2.859,228.667 2.195 C 226.467 2.002,223.664 1.383,222.438 0.819 C 221.211 0.256,218.998 0.442,217.518 1.234 C 215.990 2.052,214.510 2.159,214.092 1.482 C 213.116 -0.098,187.772 -0.028,185.785 1.559 C 184.817 2.333,183.914 2.273,183.373 1.398 C 182.374 -0.218,178.247 -0.467,176.775 1.000 M192.000 6.079 C 192.000 7.135,191.100 8.000,190.000 8.000 C 187.992 8.000,187.259 5.185,188.853 3.592 C 190.097 2.347,192.000 3.851,192.000 6.079 M212.000 6.079 C 212.000 7.135,211.100 8.000,210.000 8.000 C 207.992 8.000,207.259 5.185,208.853 3.592 C 210.097 2.347,212.000 3.851,212.000 6.079 M182.000 6.685 C 182.000 9.543,178.126 9.130,177.564 6.212 C 177.221 4.430,177.764 3.887,179.546 4.231 C 180.896 4.490,182.000 5.595,182.000 6.685 M202.667 6.000 C 202.667 7.111,201.481 8.000,200.000 8.000 C 198.519 8.000,197.333 7.111,197.333 6.000 C 197.333 4.889,198.519 4.000,200.000 4.000 C 201.481 4.000,202.667 4.889,202.667 6.000 M222.667 5.921 C 222.667 6.978,222.014 8.246,221.217 8.738 C 219.334 9.902,216.765 7.332,217.928 5.450 C 219.235 3.335,222.667 3.676,222.667 5.921 M172.000 8.000 C 172.000 9.467,171.200 10.667,170.222 10.667 C 167.714 10.667,166.731 9.384,167.568 7.203 C 168.656 4.367,172.000 4.968,172.000 8.000 M232.667 8.000 C 232.667 9.080,231.617 10.166,230.333 10.413 C 228.696 10.728,228.000 10.008,228.000 8.000 C 228.000 5.992,228.696 5.272,230.333 5.587 C 231.617 5.834,232.667 6.920,232.667 8.000 M162.667 10.000 C 162.667 11.111,161.481 12.000,160.000 12.000 C 158.519 12.000,157.333 11.111,157.333 10.000 C 157.333 8.889,158.519 8.000,160.000 8.000 C 161.481 8.000,162.667 8.889,162.667 10.000 M242.667 10.000 C 242.667 11.111,241.481 12.000,240.000 12.000 C 238.519 12.000,237.333 11.111,237.333 10.000 C 237.333 8.889,238.519 8.000,240.000 8.000 C 241.481 8.000,242.667 8.889,242.667 10.000 M152.000 12.000 C 152.000 13.467,151.200 14.667,150.222 14.667 C 147.714 14.667,146.731 13.384,147.568 11.203 C 148.656 8.367,152.000 8.968,152.000 12.000 M207.333 11.671 C 212.467 11.856,219.067 12.342,222.000 12.751 C 224.933 13.160,229.241 13.616,231.573 13.765 C 233.905 13.914,236.255 14.477,236.795 15.018 C 237.336 15.558,239.442 16.000,241.477 16.000 C 243.511 16.000,245.582 16.658,246.079 17.461 C 246.576 18.265,248.606 18.685,250.590 18.394 C 252.574 18.102,254.927 18.645,255.818 19.599 C 256.709 20.553,258.879 21.333,260.641 21.333 C 262.402 21.333,264.213 21.933,264.667 22.667 C 265.120 23.400,266.955 24.000,268.745 24.000 C 270.535 24.000,273.255 25.255,274.790 26.790 C 276.324 28.324,278.630 29.305,279.915 28.969 C 281.257 28.618,282.910 29.416,283.803 30.846 C 284.657 32.214,286.477 33.333,287.848 33.333 C 289.219 33.333,291.087 34.233,292.000 35.333 C 292.913 36.433,295.086 37.333,296.830 37.333 C 298.789 37.333,300.000 38.114,300.000 39.376 C 300.000 41.384,305.133 44.195,306.904 43.157 C 307.401 42.866,308.182 43.806,308.639 45.246 C 309.096 46.686,310.658 48.241,312.111 48.702 C 314.523 49.467,316.970 51.421,324.714 58.761 C 326.206 60.176,328.091 61.333,328.902 61.333 C 329.714 61.333,330.752 62.824,331.209 64.646 C 331.722 66.690,333.310 68.278,335.354 68.791 C 337.176 69.248,338.667 70.286,338.667 71.098 C 338.667 71.909,339.824 73.794,341.239 75.286 C 348.600 83.052,350.535 85.484,351.320 87.957 C 351.793 89.447,352.731 90.667,353.405 90.667 C 354.079 90.667,355.508 92.767,356.581 95.333 C 357.653 97.900,359.461 100.000,360.599 100.000 C 361.887 100.000,362.667 101.195,362.667 103.170 C 362.667 104.914,363.567 107.087,364.667 108.000 C 365.767 108.913,366.667 110.781,366.667 112.152 C 366.667 113.523,367.786 115.343,369.154 116.197 C 370.584 117.090,371.382 118.743,371.031 120.085 C 370.695 121.370,371.563 123.563,372.960 124.960 C 374.357 126.357,375.256 128.232,374.958 129.126 C 374.660 130.020,375.372 132.212,376.541 133.996 C 377.710 135.780,378.667 138.437,378.667 139.901 C 378.667 141.364,379.447 143.291,380.401 144.182 C 381.355 145.073,381.898 147.426,381.606 149.410 C 381.315 151.394,381.735 153.424,382.539 153.921 C 383.342 154.418,384.000 156.489,384.000 158.523 C 384.000 160.558,384.442 162.664,384.982 163.205 C 385.523 163.745,386.086 166.095,386.235 168.427 C 386.384 170.759,386.855 175.067,387.283 178.000 C 387.710 180.933,388.035 185.541,388.005 188.239 C 387.974 190.937,388.571 193.529,389.330 193.998 C 390.089 194.467,390.250 195.559,389.688 196.425 C 389.126 197.291,388.515 202.200,388.329 207.333 C 388.144 212.467,387.649 219.067,387.230 222.000 C 386.811 224.933,386.408 229.283,386.334 231.667 C 386.260 234.050,385.705 236.000,385.100 236.000 C 384.495 236.000,384.000 238.065,384.000 240.588 C 384.000 243.111,383.342 245.582,382.539 246.079 C 381.735 246.576,381.315 248.606,381.606 250.590 C 381.898 252.574,381.355 254.927,380.401 255.818 C 379.447 256.709,378.667 258.841,378.667 260.556 C 378.667 262.271,377.738 264.444,376.602 265.387 C 375.467 266.329,374.717 268.352,374.936 269.883 C 375.154 271.414,374.283 273.717,373.000 275.000 C 371.717 276.283,370.667 278.460,370.667 279.837 C 370.667 281.214,369.767 283.087,368.667 284.000 C 367.567 284.913,366.667 286.693,366.667 287.957 C 366.667 289.220,365.446 291.359,363.953 292.709 C 362.460 294.060,361.524 295.908,361.873 296.815 C 362.221 297.723,361.042 299.425,359.253 300.597 C 357.464 301.769,356.000 303.914,356.000 305.364 C 356.000 306.814,355.387 308.000,354.638 308.000 C 353.889 308.000,352.539 309.621,351.638 311.603 C 350.128 314.926,348.131 317.442,341.239 324.714 C 339.824 326.206,338.667 328.156,338.667 329.047 C 338.667 329.938,337.899 330.667,336.960 330.667 C 336.021 330.667,333.273 332.767,330.852 335.333 C 328.431 337.900,325.899 340.000,325.225 340.000 C 324.551 340.000,324.000 340.900,324.000 342.000 C 324.000 343.100,323.144 344.000,322.097 344.000 C 321.050 344.000,319.077 345.419,317.713 347.154 C 316.348 348.888,313.905 350.729,312.283 351.244 C 310.661 351.758,309.333 352.731,309.333 353.405 C 309.333 354.079,307.233 355.508,304.667 356.581 C 302.100 357.653,300.000 359.161,300.000 359.932 C 300.000 360.703,298.893 361.333,297.540 361.333 C 296.187 361.333,293.994 362.533,292.667 364.000 C 291.339 365.467,289.151 366.667,287.805 366.667 C 286.458 366.667,284.657 367.786,283.803 369.154 C 282.910 370.584,281.257 371.382,279.915 371.031 C 278.630 370.695,276.474 371.526,275.123 372.877 C 273.772 374.228,271.375 375.149,269.795 374.924 C 268.191 374.695,266.132 375.578,265.129 376.924 C 264.141 378.249,261.833 379.465,260.000 379.627 C 252.928 380.249,246.611 381.678,245.909 382.814 C 245.506 383.466,243.511 384.000,241.477 384.000 C 239.442 384.000,237.336 384.442,236.795 384.982 C 236.255 385.523,233.905 386.086,231.573 386.235 C 229.241 386.384,224.933 386.840,222.000 387.249 C 210.533 388.848,177.499 388.057,172.997 386.074 C 171.712 385.509,169.199 385.413,167.412 385.861 C 165.625 386.310,163.791 386.074,163.336 385.338 C 162.881 384.602,160.780 384.000,158.667 384.000 C 156.553 384.000,154.418 383.342,153.921 382.539 C 153.424 381.735,151.289 381.331,149.175 381.641 C 147.062 381.951,145.333 381.720,145.333 381.128 C 145.333 380.535,143.683 379.689,141.667 379.247 C 138.070 378.459,132.154 376.033,125.128 372.464 C 123.181 371.476,120.705 370.667,119.624 370.667 C 118.544 370.667,116.913 369.767,116.000 368.667 C 115.087 367.567,113.307 366.667,112.043 366.667 C 110.780 366.667,108.661 365.467,107.333 364.000 C 106.006 362.533,104.113 361.333,103.127 361.333 C 102.140 361.333,100.133 360.133,98.667 358.667 C 97.200 357.200,95.100 356.000,94.000 356.000 C 92.900 356.000,92.000 355.387,92.000 354.638 C 92.000 353.889,90.452 352.571,88.559 351.708 C 85.409 350.273,79.430 345.187,68.523 334.664 C 66.244 332.466,63.694 330.667,62.856 330.667 C 62.019 330.667,61.333 329.772,61.333 328.678 C 61.333 327.584,60.133 325.940,58.667 325.024 C 57.200 324.108,56.000 322.810,56.000 322.139 C 56.000 321.469,57.097 321.913,58.438 323.127 C 63.181 327.419,71.656 326.072,73.914 320.667 C 76.422 314.664,78.566 314.660,97.025 320.620 C 132.305 332.012,144.194 331.912,149.931 320.174 C 156.863 305.994,157.551 305.459,165.963 307.709 C 174.599 310.018,180.066 309.714,184.667 306.667 C 190.460 302.830,196.000 303.081,196.000 307.180 C 196.000 310.613,196.764 310.420,173.690 312.811 C 156.589 314.584,157.332 318.398,176.462 327.047 L 190.574 333.428 200.954 332.042 C 229.169 328.274,251.435 325.377,252.333 325.356 C 252.883 325.344,253.333 323.368,253.333 320.967 L 253.333 316.600 237.667 314.324 C 229.050 313.071,219.114 311.663,215.587 311.193 C 210.715 310.545,209.353 309.872,209.920 308.394 C 210.331 307.324,210.667 305.625,210.667 304.618 C 210.667 303.547,212.741 302.425,215.667 301.914 C 218.881 301.352,222.190 299.426,224.932 296.520 C 227.551 293.744,230.473 292.000,232.503 292.000 C 236.934 292.000,240.424 288.360,239.405 284.801 C 236.982 276.341,237.242 274.788,243.950 257.716 C 250.546 240.927,253.456 236.937,257.350 239.344 C 258.651 240.147,255.595 253.777,251.372 266.010 C 246.826 279.176,247.218 286.941,253.183 301.836 C 255.466 307.537,257.333 314.436,257.333 317.167 C 257.333 325.223,267.392 328.196,279.899 323.836 C 283.099 322.720,286.127 322.734,291.764 323.888 C 325.656 330.832,345.389 325.271,348.118 308.007 C 348.770 303.881,350.525 299.636,352.595 297.175 C 354.822 294.528,356.000 291.520,356.000 288.477 C 356.000 282.658,357.803 279.140,363.514 273.820 L 368.000 269.640 367.956 233.154 C 367.898 184.396,367.484 181.568,358.473 168.429 C 338.649 139.519,323.401 131.022,297.319 134.352 C 283.733 136.086,284.475 136.395,278.000 126.322 C 275.067 121.759,268.390 113.036,263.162 106.939 C 256.483 99.147,253.428 94.430,252.882 91.068 C 249.979 73.177,238.817 66.370,223.702 73.270 C 220.566 74.702,215.300 76.227,212.000 76.659 C 203.274 77.801,190.483 85.033,187.843 90.317 C 183.075 99.862,180.734 100.750,177.944 94.072 C 171.549 78.766,137.091 76.227,125.919 90.238 L 123.126 93.741 106.358 93.017 C 85.227 92.104,73.067 98.087,66.426 112.663 C 65.673 114.314,62.270 117.056,58.862 118.757 C 55.455 120.457,49.744 124.847,46.171 128.513 L 39.676 135.177 40.676 143.255 C 42.212 155.664,41.833 160.853,38.837 168.396 C 37.322 172.212,34.918 181.151,33.496 188.261 C 31.430 198.586,30.041 202.269,26.593 206.558 C 19.473 215.418,23.320 222.205,38.000 226.685 C 40.933 227.580,44.961 229.832,46.949 231.690 L 50.565 235.069 47.336 238.907 C 40.148 247.450,41.980 261.784,50.629 264.669 C 54.362 265.914,55.443 267.100,56.211 270.797 C 56.735 273.319,58.402 278.271,59.915 281.802 C 63.451 290.051,63.380 292.712,59.333 303.462 C 57.500 308.332,56.000 314.074,56.000 316.221 C 56.000 321.126,50.667 317.984,48.286 311.676 C 47.523 309.654,45.965 308.000,44.824 308.000 C 43.579 308.000,43.041 307.242,43.478 306.103 C 43.879 305.060,42.960 302.960,41.436 301.436 C 39.913 299.913,38.667 297.860,38.667 296.873 C 38.667 295.887,37.467 293.994,36.000 292.667 C 34.533 291.339,33.333 289.220,33.333 287.957 C 33.333 286.693,32.433 284.913,31.333 284.000 C 30.233 283.087,29.333 281.214,29.333 279.837 C 29.333 278.460,28.283 276.283,27.000 275.000 C 25.717 273.717,24.846 271.414,25.064 269.883 C 25.283 268.352,24.533 266.329,23.398 265.387 C 22.262 264.444,21.333 262.271,21.333 260.556 C 21.333 258.841,20.553 256.709,19.599 255.818 C 18.645 254.927,18.102 252.574,18.394 250.590 C 18.685 248.606,18.265 246.576,17.461 246.079 C 16.658 245.582,16.000 243.511,16.000 241.477 C 16.000 239.442,15.558 237.336,15.018 236.795 C 14.073 235.851,13.437 230.345,13.319 222.095 C 13.289 219.947,12.638 217.435,11.873 216.513 C 10.935 215.383,10.916 214.026,11.814 212.347 C 12.547 210.977,12.656 209.062,12.057 208.092 C 11.457 207.121,11.278 204.003,11.659 201.163 C 12.144 197.544,11.851 196.000,10.679 196.000 C 9.343 196.000,9.341 195.598,10.669 193.997 C 11.648 192.818,12.007 190.369,11.543 188.048 C 11.109 185.879,11.331 183.747,12.037 183.310 C 12.743 182.874,13.332 180.601,13.347 178.259 C 13.401 169.995,14.046 164.176,15.018 163.205 C 15.558 162.664,16.000 160.558,16.000 158.523 C 16.000 156.489,16.658 154.418,17.461 153.921 C 18.265 153.424,18.673 151.312,18.367 149.227 C 18.005 146.761,18.478 145.179,19.721 144.702 C 20.968 144.224,21.437 142.643,21.070 140.146 C 20.672 137.435,21.236 135.870,23.008 134.763 C 24.532 133.811,25.351 132.013,25.107 130.152 C 24.887 128.475,25.795 126.015,27.124 124.686 C 28.453 123.357,29.275 121.252,28.950 120.010 C 28.621 118.751,29.461 117.063,30.846 116.197 C 32.214 115.343,33.333 113.542,33.333 112.195 C 33.333 110.849,34.570 108.627,36.082 107.259 C 37.639 105.850,38.560 103.737,38.207 102.386 C 37.831 100.950,38.311 100.000,39.411 100.000 C 41.614 100.000,44.450 95.139,43.316 93.306 C 42.872 92.588,43.458 92.000,44.617 92.000 C 45.776 92.000,47.458 90.350,48.356 88.333 C 49.254 86.317,51.341 83.573,52.994 82.237 C 54.647 80.900,56.000 79.279,56.000 78.633 C 56.000 77.988,59.000 74.460,62.667 70.794 C 66.333 67.127,69.333 63.498,69.333 62.730 C 69.333 61.962,70.158 61.333,71.166 61.333 C 72.175 61.333,75.665 58.780,78.922 55.659 C 82.179 52.538,86.455 49.250,88.422 48.354 C 90.390 47.457,92.000 45.939,92.000 44.979 C 92.000 44.019,93.350 43.136,95.000 43.015 C 96.650 42.895,98.823 41.567,99.829 40.065 C 100.835 38.563,102.712 37.333,103.999 37.333 C 105.287 37.333,107.087 36.433,108.000 35.333 C 108.913 34.233,110.713 33.333,112.000 33.333 C 113.287 33.333,115.087 32.433,116.000 31.333 C 116.913 30.233,118.705 29.333,119.983 29.333 C 121.261 29.333,123.833 28.133,125.697 26.667 C 127.562 25.200,130.361 24.000,131.919 24.000 C 133.476 24.000,135.062 23.189,135.442 22.198 C 135.851 21.131,137.398 20.637,139.232 20.988 C 140.937 21.313,143.112 20.744,144.067 19.722 C 145.030 18.690,147.407 18.100,149.410 18.394 C 151.394 18.685,153.424 18.265,153.921 17.461 C 154.418 16.658,156.489 16.000,158.523 16.000 C 160.558 16.000,162.664 15.558,163.205 15.018 C 163.745 14.477,166.095 13.914,168.427 13.765 C 170.759 13.616,175.067 13.145,178.000 12.717 C 180.933 12.290,185.541 11.965,188.239 11.995 C 190.937 12.026,193.529 11.429,193.998 10.670 C 194.467 9.911,195.559 9.750,196.425 10.312 C 197.291 10.874,202.200 11.485,207.333 11.671 M252.000 12.000 C 252.000 13.481,251.111 14.667,250.000 14.667 C 248.889 14.667,248.000 13.481,248.000 12.000 C 248.000 10.519,248.889 9.333,250.000 9.333 C 251.111 9.333,252.000 10.519,252.000 12.000 M262.000 14.760 C 262.000 15.788,260.950 16.832,259.667 17.080 C 257.368 17.522,256.418 14.693,258.250 12.861 C 259.648 11.464,262.000 12.654,262.000 14.760 M142.667 15.333 C 142.667 16.444,141.481 17.333,140.000 17.333 C 138.519 17.333,137.333 16.444,137.333 15.333 C 137.333 14.222,138.519 13.333,140.000 13.333 C 141.481 13.333,142.667 14.222,142.667 15.333 M132.759 17.482 C 133.764 19.109,130.769 21.554,129.064 20.500 C 128.479 20.138,128.000 18.978,128.000 17.921 C 128.000 15.659,131.436 15.342,132.759 17.482 M271.746 18.333 C 271.499 19.617,270.413 20.667,269.333 20.667 C 268.253 20.667,267.168 19.617,266.920 18.333 C 266.605 16.696,267.325 16.000,269.333 16.000 C 271.342 16.000,272.061 16.696,271.746 18.333 M123.333 22.685 C 123.333 25.543,119.459 25.130,118.897 22.212 C 118.554 20.430,119.097 19.887,120.879 20.231 C 122.229 20.490,123.333 21.595,123.333 22.685 M184.000 22.218 C 184.000 23.856,183.584 24.118,182.580 23.113 C 181.602 22.135,179.217 22.101,174.913 23.003 C 167.141 24.631,167.031 24.741,170.282 27.633 C 173.514 30.509,176.615 43.376,174.644 45.732 C 173.907 46.613,172.042 49.016,170.498 51.073 C 165.447 57.804,162.434 55.668,159.582 43.333 C 157.749 35.406,157.486 32.072,158.558 30.351 C 161.095 26.278,159.206 25.982,149.000 28.856 C 146.341 29.605,145.795 33.333,148.344 33.333 C 150.980 33.333,156.167 54.436,154.275 57.465 C 151.811 61.411,153.294 61.378,171.039 57.094 C 185.581 53.583,192.463 50.667,186.206 50.667 C 185.056 50.667,183.618 47.058,182.206 40.629 C 179.621 28.864,179.452 25.333,181.476 25.333 C 182.288 25.333,182.614 26.214,182.201 27.291 C 180.808 30.920,184.381 31.104,186.979 27.537 C 192.196 20.375,194.617 23.856,194.648 38.562 C 194.661 44.677,194.036 47.820,192.460 49.562 C 190.345 51.899,190.594 52.000,198.460 52.000 C 206.986 52.000,208.431 50.941,204.150 47.829 C 200.368 45.080,198.912 24.000,202.504 24.000 C 203.836 24.000,206.309 25.200,208.000 26.667 C 212.426 30.505,213.596 29.960,211.576 25.000 L 209.811 20.667 196.905 20.285 C 185.396 19.945,184.000 20.154,184.000 22.218 M281.333 21.921 C 281.333 22.978,280.681 24.246,279.884 24.738 C 278.001 25.902,275.431 23.332,276.595 21.450 C 277.902 19.335,281.333 19.676,281.333 21.921 M214.667 22.556 C 214.667 23.228,215.376 24.014,216.243 24.303 C 218.686 25.118,215.328 46.837,212.426 48.986 C 209.328 51.281,210.522 52.027,221.629 54.737 L 231.333 57.104 234.333 53.811 C 239.177 48.494,238.314 45.843,232.840 49.226 C 227.174 52.728,219.500 51.848,220.632 47.826 C 221.018 46.455,221.674 44.133,222.090 42.667 C 223.150 38.930,226.450 39.341,227.452 43.333 C 229.148 50.088,232.000 46.127,232.000 37.018 C 232.000 31.841,231.886 31.690,229.562 33.793 C 225.389 37.569,223.130 36.614,223.747 31.333 C 224.047 28.767,224.737 26.667,225.280 26.667 C 228.602 26.667,234.682 29.948,235.369 32.111 C 236.517 35.728,240.000 35.335,240.000 31.588 C 240.000 26.644,237.191 24.456,228.778 22.844 C 219.226 21.015,214.667 20.922,214.667 22.556 M114.000 26.760 C 114.000 27.788,112.950 28.832,111.667 29.080 C 109.368 29.522,108.418 26.693,110.250 24.861 C 111.648 23.464,114.000 24.654,114.000 26.760 M290.667 26.667 C 290.667 28.133,289.802 29.333,288.745 29.333 C 286.390 29.333,284.884 27.139,286.000 25.333 C 287.450 22.987,290.667 23.906,290.667 26.667 M105.187 32.844 C 103.179 35.262,101.434 35.148,100.431 32.532 C 99.383 29.803,102.667 27.674,104.972 29.587 C 106.273 30.667,106.326 31.470,105.187 32.844 M248.113 31.619 C 240.252 35.729,235.616 50.387,240.333 56.217 C 246.308 63.600,254.014 64.502,260.312 58.555 C 264.438 54.660,264.492 54.492,261.333 55.361 C 247.201 59.249,241.816 53.667,247.220 40.731 C 250.881 31.971,257.779 31.425,262.770 39.500 C 266.146 44.963,268.412 43.927,267.764 37.217 C 267.313 32.550,267.889 32.890,255.333 29.877 C 253.867 29.526,250.618 30.309,248.113 31.619 M299.746 31.667 C 299.499 32.950,298.413 34.000,297.333 34.000 C 296.253 34.000,295.168 32.950,294.920 31.667 C 294.605 30.030,295.325 29.333,297.333 29.333 C 299.342 29.333,300.061 30.030,299.746 31.667 M96.000 37.333 C 96.000 38.815,95.111 40.000,94.000 40.000 C 92.889 40.000,92.000 38.815,92.000 37.333 C 92.000 35.852,92.889 34.667,94.000 34.667 C 95.111 34.667,96.000 35.852,96.000 37.333 M308.000 37.333 C 308.000 38.815,307.111 40.000,306.000 40.000 C 304.889 40.000,304.000 38.815,304.000 37.333 C 304.000 35.852,304.889 34.667,306.000 34.667 C 307.111 34.667,308.000 35.852,308.000 37.333 M123.200 40.533 C 110.403 53.331,127.838 76.385,142.711 66.333 C 151.047 60.700,151.090 50.027,142.811 41.324 C 135.991 34.155,129.827 33.906,123.200 40.533 M273.333 38.400 C 273.333 38.987,273.896 40.037,274.585 40.733 C 276.454 42.626,264.106 62.667,261.071 62.667 C 257.246 62.667,258.273 64.843,263.202 67.181 C 269.002 69.934,269.689 69.887,268.712 66.808 C 268.204 65.209,269.589 61.496,272.488 56.683 L 277.066 49.084 278.022 61.833 C 279.423 80.520,280.497 80.974,289.333 66.613 C 294.545 58.142,297.438 54.678,299.333 54.638 C 301.723 54.588,301.611 54.240,298.259 51.291 C 294.114 47.644,290.322 46.885,291.493 49.936 C 291.902 51.001,290.533 55.013,288.451 58.853 L 284.667 65.833 284.340 59.250 C 283.608 44.519,282.727 41.433,278.650 39.325 C 274.263 37.056,273.333 36.894,273.333 38.400 M88.000 42.667 C 88.000 44.148,87.111 45.333,86.000 45.333 C 84.889 45.333,84.000 44.148,84.000 42.667 C 84.000 41.185,84.889 40.000,86.000 40.000 C 87.111 40.000,88.000 41.185,88.000 42.667 M136.386 44.333 C 144.407 55.237,144.513 64.000,136.622 64.000 C 131.594 64.000,128.293 60.223,125.215 50.949 C 122.079 41.502,130.593 36.459,136.386 44.333 M316.432 41.870 C 317.269 44.050,316.286 45.333,313.778 45.333 C 312.800 45.333,312.000 44.133,312.000 42.667 C 312.000 39.635,315.344 39.034,316.432 41.870 M80.000 49.333 C 80.000 50.800,79.135 52.000,78.079 52.000 C 75.723 52.000,74.217 49.806,75.333 48.000 C 76.783 45.654,80.000 46.573,80.000 49.333 M324.000 49.333 C 324.000 50.815,323.111 52.000,322.000 52.000 C 320.889 52.000,320.000 50.815,320.000 49.333 C 320.000 47.852,320.889 46.667,322.000 46.667 C 323.111 46.667,324.000 47.852,324.000 49.333 M97.569 55.939 C 89.283 62.489,88.300 63.988,92.255 64.044 C 96.136 64.099,108.000 78.715,108.000 83.442 C 108.000 87.616,109.750 87.512,115.405 83.000 C 120.856 78.650,121.157 77.333,116.697 77.333 C 110.133 77.333,108.330 71.494,113.186 65.964 C 123.997 53.651,111.010 45.315,97.569 55.939 M71.764 55.556 C 71.116 58.901,68.000 59.361,68.000 56.111 C 68.000 54.473,68.861 53.333,70.098 53.333 C 71.339 53.333,72.020 54.240,71.764 55.556 M331.764 55.556 C 331.116 58.901,328.000 59.361,328.000 56.111 C 328.000 54.473,328.861 53.333,330.098 53.333 C 331.339 53.333,332.020 54.240,331.764 55.556 M110.433 60.447 C 111.170 66.885,106.781 68.750,103.177 63.531 C 99.762 58.587,101.133 55.636,106.553 56.266 C 109.228 56.577,110.097 57.513,110.433 60.447 M301.873 58.149 C 303.019 61.136,289.918 78.667,286.540 78.667 C 282.771 78.667,283.442 80.591,288.578 84.508 C 294.113 88.731,296.500 89.011,295.322 85.299 C 294.120 81.509,307.076 64.016,311.126 63.961 C 313.746 63.925,313.615 63.572,309.646 59.961 C 304.863 55.611,300.509 54.596,301.873 58.149 M64.667 62.667 C 64.667 63.747,63.617 64.832,62.333 65.080 C 60.696 65.395,60.000 64.675,60.000 62.667 C 60.000 60.658,60.696 59.939,62.333 60.254 C 63.617 60.501,64.667 61.587,64.667 62.667 M340.000 62.764 C 340.000 64.673,339.282 65.391,337.682 65.082 C 334.206 64.413,333.819 60.000,337.236 60.000 C 339.144 60.000,340.000 60.856,340.000 62.764 M58.667 70.000 C 58.667 71.111,57.481 72.000,56.000 72.000 C 54.519 72.000,53.333 71.111,53.333 70.000 C 53.333 68.889,54.519 68.000,56.000 68.000 C 57.481 68.000,58.667 68.889,58.667 70.000 M346.667 70.000 C 346.667 71.111,345.481 72.000,344.000 72.000 C 342.519 72.000,341.333 71.111,341.333 70.000 C 341.333 68.889,342.519 68.000,344.000 68.000 C 345.481 68.000,346.667 68.889,346.667 70.000 M312.304 71.612 C 303.914 73.222,296.652 86.769,300.206 94.181 C 303.264 100.559,314.876 103.901,318.558 99.464 C 319.843 97.916,319.291 97.617,315.357 97.729 C 304.777 98.029,302.355 85.967,311.545 78.738 C 319.234 72.690,326.667 76.685,326.667 86.866 C 326.667 90.598,329.010 89.826,331.337 85.326 C 333.381 81.373,333.342 81.259,328.517 76.993 C 321.564 70.845,319.634 70.204,312.304 71.612 M353.333 78.079 C 353.333 79.135,352.133 80.000,350.667 80.000 C 347.756 80.000,346.977 76.589,349.667 75.624 C 351.922 74.815,353.333 75.760,353.333 78.079 M52.000 78.000 C 52.000 79.111,50.815 80.000,49.333 80.000 C 47.852 80.000,46.667 79.111,46.667 78.000 C 46.667 76.889,47.852 76.000,49.333 76.000 C 50.815 76.000,52.000 76.889,52.000 78.000 M237.319 77.983 C 239.985 81.196,237.920 84.000,232.888 84.000 C 227.835 84.000,221.392 88.290,221.228 91.763 C 221.170 92.994,220.856 93.358,220.530 92.573 C 217.358 84.936,232.308 71.944,237.319 77.983 M212.850 87.506 C 210.413 105.284,208.802 106.491,198.977 97.897 C 190.997 90.915,190.642 89.963,195.563 88.728 C 197.522 88.236,200.972 86.378,203.230 84.598 C 210.335 78.996,213.870 80.065,212.850 87.506 M246.488 89.333 L 246.351 94.000 245.333 90.000 C 243.742 83.748,243.742 80.205,245.333 82.667 C 246.044 83.767,246.564 86.767,246.488 89.333 M45.333 86.079 C 45.333 87.135,44.133 88.000,42.667 88.000 C 39.756 88.000,38.977 84.589,41.667 83.624 C 43.922 82.815,45.333 83.760,45.333 86.079 M162.618 87.309 C 169.051 90.568,173.333 94.960,173.333 98.297 C 173.333 101.216,169.502 100.164,167.169 96.603 C 164.380 92.347,158.148 93.114,153.839 98.245 L 151.012 101.611 148.924 98.630 C 145.827 94.208,142.667 96.091,142.667 102.358 C 142.667 109.080,144.530 110.667,152.422 110.667 C 158.607 110.667,158.925 110.836,158.048 113.667 C 155.786 120.965,155.783 122.298,158.031 123.161 C 159.336 123.661,162.146 122.891,164.641 121.349 C 170.312 117.844,171.559 117.965,178.534 122.691 C 186.969 128.407,202.540 125.727,204.502 118.223 C 205.458 114.568,210.613 120.758,211.915 127.123 C 212.991 132.383,214.589 132.329,218.000 126.917 C 221.915 120.705,226.093 119.954,232.428 124.325 C 234.549 125.788,235.441 125.325,239.475 120.667 C 244.081 115.347,244.091 115.343,243.080 119.333 C 239.814 132.226,244.272 137.404,252.144 129.862 C 256.309 125.872,257.106 122.100,254.142 120.400 C 249.591 117.787,248.810 105.333,253.198 105.333 C 258.424 105.333,276.410 130.768,273.973 134.711 C 272.721 136.736,267.035 136.217,266.184 134.000 C 264.108 128.590,253.235 131.499,245.843 139.442 C 237.820 148.062,234.319 148.566,230.021 141.718 C 228.543 139.363,226.583 137.413,225.667 137.385 C 223.397 137.315,223.636 142.740,226.042 145.922 C 228.974 149.797,228.446 152.942,223.774 159.449 C 216.909 169.008,210.155 164.882,206.126 148.667 C 200.419 125.693,177.065 119.881,166.438 138.788 C 162.913 145.061,163.180 145.038,154.755 139.801 C 147.474 135.274,144.590 126.697,150.333 126.646 C 157.597 126.583,156.942 121.934,149.097 117.878 C 145.751 116.148,144.863 116.175,141.097 118.122 C 137.101 120.189,136.758 120.173,135.061 117.853 C 129.599 110.383,112.132 139.642,113.084 154.667 C 113.986 168.897,116.367 182.016,119.048 187.535 C 121.806 193.212,121.245 195.965,117.333 195.958 C 116.526 195.956,104.971 168.454,102.164 159.854 C 100.117 153.579,100.589 150.052,107.631 119.000 C 108.572 114.849,104.508 114.995,101.176 119.231 C 99.778 121.008,96.821 122.860,94.605 123.347 C 90.132 124.329,85.951 129.546,87.145 132.656 C 87.742 134.212,86.861 134.667,83.250 134.667 C 77.653 134.667,75.959 137.605,79.378 141.383 C 81.700 143.948,81.623 144.000,75.507 144.000 C 69.640 144.000,69.219 143.761,68.467 140.000 C 67.004 132.687,61.333 135.423,61.333 143.442 C 61.333 147.655,58.250 147.598,55.456 143.333 C 52.833 139.330,49.347 138.994,48.390 142.652 C 47.499 146.058,45.333 144.766,45.333 140.828 C 45.333 137.210,53.456 127.361,58.658 124.671 C 62.330 122.772,69.333 126.825,69.333 130.848 C 69.333 131.482,70.601 132.000,72.151 132.000 C 74.612 132.000,74.864 131.450,74.141 127.667 C 71.079 111.652,72.888 107.127,85.086 100.291 L 90.515 97.248 84.744 106.957 C 74.780 123.720,73.735 130.655,81.008 131.743 C 83.113 132.058,84.104 131.059,85.308 127.409 C 86.169 124.801,87.427 122.667,88.103 122.667 C 88.780 122.667,89.336 120.417,89.338 117.667 C 89.351 104.979,100.532 97.014,117.494 97.611 L 128.564 98.000 130.189 102.667 C 131.084 105.233,132.168 108.983,132.600 111.000 C 133.198 113.795,134.165 114.667,136.667 114.667 C 141.997 114.667,142.298 109.524,137.559 99.398 L 133.509 90.743 138.421 89.379 C 141.123 88.629,145.210 88.012,147.503 88.007 C 149.797 88.003,152.420 87.100,153.333 86.000 C 155.427 83.477,154.914 83.405,162.618 87.309 M360.000 86.000 C 360.000 87.111,358.815 88.000,357.333 88.000 C 355.852 88.000,354.667 87.111,354.667 86.000 C 354.667 84.889,355.852 84.000,357.333 84.000 C 358.815 84.000,360.000 84.889,360.000 86.000 M329.790 91.331 C 318.088 96.251,313.729 111.224,321.943 118.289 C 331.487 126.498,348.127 117.533,348.482 103.990 C 348.725 94.715,338.389 87.715,329.790 91.331 M39.667 94.333 C 39.993 95.311,39.074 96.000,37.444 96.000 C 35.807 96.000,34.667 95.139,34.667 93.902 C 34.667 91.452,38.827 91.810,39.667 94.333 M238.211 94.068 C 239.058 96.276,235.153 101.146,229.000 105.554 L 225.333 108.182 225.333 105.396 C 225.333 103.718,226.659 102.005,228.667 101.091 C 232.241 99.462,232.996 96.196,230.400 93.600 C 229.156 92.356,229.757 92.000,233.109 92.000 C 235.771 92.000,237.720 92.790,238.211 94.068 M365.333 94.000 C 365.333 95.111,364.148 96.000,362.667 96.000 C 361.185 96.000,360.000 95.111,360.000 94.000 C 360.000 92.889,361.185 92.000,362.667 92.000 C 364.148 92.000,365.333 92.889,365.333 94.000 M343.763 100.413 C 344.366 105.673,334.147 116.000,328.339 116.000 C 319.508 116.000,319.819 107.947,328.960 99.921 C 335.274 94.377,343.101 94.637,343.763 100.413 M218.104 107.000 L 216.667 115.333 216.256 108.896 C 215.928 103.747,217.423 98.667,219.268 98.667 C 219.419 98.667,218.895 102.417,218.104 107.000 M34.000 102.667 C 34.000 103.747,32.950 104.832,31.667 105.080 C 30.030 105.395,29.333 104.675,29.333 102.667 C 29.333 100.658,30.030 99.939,31.667 100.254 C 32.950 100.501,34.000 101.587,34.000 102.667 M370.667 102.764 C 370.667 106.181,366.254 105.794,365.584 102.318 C 365.276 100.718,365.994 100.000,367.902 100.000 C 369.810 100.000,370.667 100.856,370.667 102.764 M195.569 107.028 C 199.536 113.317,196.828 115.373,191.541 110.086 C 189.295 107.840,186.657 106.667,183.854 106.667 C 179.637 106.667,179.616 106.634,182.059 103.935 C 185.972 99.611,191.721 100.927,195.569 107.028 M29.333 112.000 C 29.333 113.467,28.469 114.667,27.412 114.667 C 25.057 114.667,23.551 112.472,24.667 110.667 C 26.117 108.321,29.333 109.240,29.333 112.000 M375.333 112.000 C 375.333 113.080,374.283 114.166,373.000 114.413 C 371.363 114.728,370.667 114.008,370.667 112.000 C 370.667 109.992,371.363 109.272,373.000 109.587 C 374.283 109.834,375.333 110.920,375.333 112.000 M25.001 121.000 C 25.326 121.978,24.407 122.667,22.778 122.667 C 21.140 122.667,20.000 121.806,20.000 120.569 C 20.000 118.118,24.161 118.477,25.001 121.000 M380.000 120.667 C 380.000 121.778,378.815 122.667,377.333 122.667 C 374.677 122.667,373.865 121.246,375.556 119.556 C 377.179 117.932,380.000 118.637,380.000 120.667 M21.001 130.333 C 21.326 131.311,20.407 132.000,18.778 132.000 C 17.140 132.000,16.000 131.139,16.000 129.902 C 16.000 127.452,20.161 127.810,21.001 130.333 M384.000 130.000 C 384.000 131.111,382.815 132.000,381.333 132.000 C 379.852 132.000,378.667 131.111,378.667 130.000 C 378.667 128.889,379.852 128.000,381.333 128.000 C 382.815 128.000,384.000 128.889,384.000 130.000 M208.889 135.556 C 207.576 136.869,207.809 141.333,209.191 141.333 C 210.382 141.333,212.000 138.198,212.000 135.891 C 212.000 134.465,210.176 134.268,208.889 135.556 M192.480 138.614 C 194.077 140.210,194.213 153.681,192.689 159.175 C 191.852 162.187,192.129 163.299,193.971 164.330 C 195.263 165.053,195.790 166.025,195.143 166.489 C 194.495 166.953,193.359 169.133,192.617 171.333 C 191.523 174.580,190.522 175.333,187.301 175.333 L 183.333 175.333 183.333 160.000 C 183.333 145.114,183.246 144.654,180.333 144.241 C 177.703 143.867,177.333 144.401,177.333 148.574 C 177.333 152.164,176.777 153.333,175.067 153.333 C 173.304 153.333,173.156 153.689,174.400 154.933 C 176.272 156.805,176.613 171.203,174.759 170.057 C 174.076 169.635,173.101 169.964,172.592 170.787 C 171.052 173.279,169.376 169.250,169.354 163.000 C 169.330 156.517,166.135 155.051,164.040 160.561 C 163.164 162.866,162.078 163.597,160.243 163.117 C 156.676 162.184,152.622 168.263,147.894 181.634 C 143.017 195.425,143.163 195.318,134.895 191.197 C 125.413 186.472,124.000 183.285,124.000 166.621 L 124.000 153.109 129.000 157.052 C 143.110 168.180,147.272 168.892,154.838 161.476 C 158.301 158.082,160.980 156.506,162.579 156.924 C 164.495 157.425,165.554 156.178,167.468 151.165 C 172.625 137.662,185.212 131.345,192.480 138.614 M17.333 140.000 C 17.333 141.467,16.469 142.667,15.412 142.667 C 13.057 142.667,11.551 140.472,12.667 138.667 C 14.117 136.321,17.333 137.240,17.333 140.000 M143.776 145.479 C 144.019 147.960,144.842 150.742,145.606 151.661 C 147.897 154.422,142.474 153.644,138.667 150.667 C 136.833 149.233,134.657 148.046,133.830 148.030 C 129.513 147.945,129.324 144.245,133.460 140.764 C 138.764 136.302,143.069 138.270,143.776 145.479 M387.405 138.783 C 388.660 140.813,385.935 143.183,383.445 142.228 C 382.248 141.768,381.709 140.572,382.165 139.384 C 383.075 137.012,386.097 136.666,387.405 138.783 M320.353 140.834 C 323.531 141.768,321.932 144.000,318.085 144.000 C 311.180 144.000,310.529 149.976,317.333 150.887 C 319.579 151.188,320.546 152.062,320.298 153.566 C 319.891 156.029,321.491 156.676,331.316 158.017 C 343.176 159.636,352.409 167.485,359.105 181.640 L 362.667 189.168 362.667 227.917 C 362.667 249.230,362.410 266.667,362.096 266.667 C 351.528 266.667,336.573 270.820,333.709 274.551 C 328.611 281.191,333.714 284.260,341.888 279.470 C 349.363 275.089,350.672 275.118,350.646 279.667 C 350.611 285.947,349.034 287.213,343.666 285.272 C 334.510 281.961,331.098 287.439,339.600 291.801 L 344.533 294.331 337.357 295.870 C 323.490 298.844,321.232 306.226,334.667 304.667 C 341.495 303.874,342.667 304.050,342.667 305.869 C 342.667 307.586,341.103 308.000,334.616 308.000 C 326.630 308.000,326.569 308.029,326.950 311.667 C 327.300 315.014,326.904 315.369,322.404 315.743 C 318.754 316.046,317.667 316.651,318.214 318.076 C 319.192 320.625,317.834 320.415,310.672 316.906 C 301.721 312.521,299.859 307.806,300.896 292.157 C 301.872 277.420,299.954 276.091,295.041 288.100 C 291.692 296.287,291.267 302.450,293.606 308.918 C 295.931 315.348,292.438 319.023,286.965 315.907 C 281.905 313.027,282.065 305.055,287.343 297.080 C 293.232 288.181,298.289 259.897,294.891 254.863 C 293.377 252.620,283.233 256.735,275.995 262.526 L 271.324 266.264 271.329 258.132 C 271.340 237.963,264.117 253.244,263.024 275.701 C 262.621 283.970,261.997 290.442,261.637 290.082 C 261.277 289.722,259.899 290.007,258.573 290.717 C 253.986 293.171,253.759 281.982,258.033 264.167 C 263.713 240.496,264.898 237.825,272.502 231.544 C 283.743 222.259,290.667 215.131,290.667 212.842 C 290.667 210.251,287.567 209.984,285.095 212.361 C 280.452 216.826,270.530 224.308,269.981 223.759 C 268.609 222.386,277.331 210.886,281.873 208.078 L 286.737 205.073 292.763 207.905 L 298.789 210.738 297.856 241.369 C 296.938 271.489,297.310 274.860,301.051 270.333 C 303.632 267.210,306.666 252.307,306.858 241.808 L 307.050 231.333 308.042 242.000 C 309.213 254.596,310.244 257.617,313.168 257.029 C 314.643 256.732,315.269 255.329,315.132 252.630 C 315.021 250.450,314.208 237.567,313.326 224.000 L 311.721 199.333 304.001 191.333 C 289.375 176.179,288.062 166.449,299.209 155.846 C 305.642 149.727,304.014 146.126,296.824 150.569 C 289.557 155.061,286.875 159.327,285.900 167.947 C 285.088 175.120,280.000 179.151,280.000 172.620 C 280.000 171.666,279.598 169.837,279.107 168.557 C 278.535 167.066,278.728 166.547,279.645 167.114 C 280.572 167.687,281.239 165.650,281.538 161.332 C 281.792 157.665,281.529 154.665,280.953 154.666 C 280.377 154.666,280.548 153.467,281.333 152.000 C 282.118 150.533,283.952 149.333,285.409 149.333 C 286.865 149.333,290.416 147.772,293.299 145.865 C 303.300 139.246,310.437 137.919,320.353 140.834 M185.587 142.333 C 185.834 143.617,186.920 144.667,188.000 144.667 C 189.080 144.667,190.166 143.617,190.413 142.333 C 190.728 140.696,190.008 140.000,188.000 140.000 C 185.992 140.000,185.272 140.696,185.587 142.333 M276.011 148.441 C 272.986 153.802,272.000 157.243,272.000 162.441 C 272.000 171.455,270.650 171.136,265.902 161.000 C 262.046 152.768,261.922 152.658,255.722 151.945 C 243.268 150.513,248.846 146.759,268.251 143.513 C 274.346 142.493,279.488 141.586,279.678 141.496 C 279.868 141.407,278.218 144.532,276.011 148.441 M14.431 149.777 C 14.722 151.276,13.962 152.000,12.098 152.000 C 10.577 152.000,9.333 151.200,9.333 150.222 C 9.333 146.139,13.652 145.761,14.431 149.777 M390.431 149.777 C 390.722 151.276,389.962 152.000,388.098 152.000 C 386.577 152.000,385.333 151.200,385.333 150.222 C 385.333 146.139,389.652 145.761,390.431 149.777 M77.667 151.444 C 80.889 154.667,68.222 159.912,57.079 159.968 C 49.336 160.008,47.472 157.767,54.296 156.625 C 57.067 156.161,62.633 154.678,66.667 153.329 C 74.826 150.601,76.531 150.309,77.667 151.444 M12.000 160.000 C 12.000 161.481,11.111 162.667,10.000 162.667 C 8.889 162.667,8.000 161.481,8.000 160.000 C 8.000 158.519,8.889 157.333,10.000 157.333 C 11.111 157.333,12.000 158.519,12.000 160.000 M253.275 159.669 C 257.801 161.958,257.889 162.164,258.155 171.080 L 258.427 180.159 254.546 179.307 C 249.299 178.154,248.200 181.330,252.000 186.666 C 254.344 189.958,254.598 191.143,253.294 192.714 C 250.978 195.504,248.835 195.129,247.316 191.667 C 246.178 189.071,244.837 188.612,237.384 188.262 C 225.112 187.687,222.185 183.690,225.371 171.859 C 228.821 159.049,241.286 153.604,253.275 159.669 M392.000 160.000 C 392.000 161.481,391.111 162.667,390.000 162.667 C 388.889 162.667,388.000 161.481,388.000 160.000 C 388.000 158.519,388.889 157.333,390.000 157.333 C 391.111 157.333,392.000 158.519,392.000 160.000 M94.667 162.620 C 94.667 164.250,89.370 167.148,88.316 166.094 C 87.883 165.661,88.684 164.431,90.097 163.362 C 93.113 161.080,94.667 160.828,94.667 162.620 M10.431 169.777 C 10.722 171.276,9.962 172.000,8.098 172.000 C 6.577 172.000,5.333 171.200,5.333 170.222 C 5.333 166.139,9.652 165.761,10.431 169.777 M75.052 171.941 C 81.333 176.452,81.752 177.113,83.340 185.000 C 84.033 188.445,83.775 189.333,82.081 189.333 C 79.720 189.333,80.079 192.710,83.380 201.525 L 85.199 206.384 79.300 207.269 C 74.740 207.953,72.516 209.227,69.502 212.884 C 65.837 217.329,65.549 217.445,64.711 214.807 C 63.340 210.487,60.548 211.445,56.378 217.667 C 50.271 226.777,41.193 225.296,46.013 215.975 C 50.355 207.578,45.904 205.401,39.248 212.667 C 32.107 220.463,26.083 216.067,32.865 208.008 C 35.581 204.779,36.948 200.717,38.841 190.244 C 40.191 182.777,42.326 174.349,43.585 171.516 L 45.874 166.366 57.345 166.915 C 67.806 167.415,69.366 167.858,75.052 171.941 M394.431 169.777 C 394.722 171.276,393.962 172.000,392.098 172.000 C 390.577 172.000,389.333 171.200,389.333 170.222 C 389.333 166.139,393.652 165.761,394.431 169.777 M173.658 184.000 C 174.418 184.000,175.709 183.085,176.527 181.966 C 177.858 180.145,178.713 180.143,184.674 181.951 C 193.732 184.699,193.445 184.771,200.313 178.000 C 212.427 166.058,221.624 175.034,216.429 193.728 C 214.683 200.008,214.571 202.422,215.827 206.616 C 217.257 211.386,217.019 212.514,212.683 221.555 C 210.104 226.933,207.154 234.033,206.129 237.333 L 204.264 243.333 204.132 231.879 C 204.055 225.169,204.822 217.713,205.986 213.879 C 207.078 210.279,207.978 205.173,207.986 202.532 C 207.994 199.892,208.675 195.796,209.499 193.431 C 211.737 187.010,209.206 185.516,204.853 190.689 C 202.009 194.069,201.308 196.323,201.199 202.436 C 201.068 209.883,201.047 209.922,199.870 204.920 C 195.363 185.762,170.666 179.160,155.615 193.089 C 151.491 196.906,149.278 198.297,149.922 196.667 C 150.501 195.200,151.520 191.600,152.186 188.667 C 155.863 172.474,159.980 169.523,167.139 177.950 C 169.965 181.278,172.899 184.000,173.658 184.000 M249.333 174.000 C 249.333 175.100,249.933 176.000,250.667 176.000 C 251.400 176.000,252.000 175.100,252.000 174.000 C 252.000 172.900,251.400 172.000,250.667 172.000 C 249.933 172.000,249.333 172.900,249.333 174.000 M347.444 183.667 C 347.817 188.617,348.661 197.167,349.321 202.667 C 349.981 208.167,350.945 216.567,351.463 221.333 C 352.174 227.871,352.629 229.181,353.316 226.667 C 354.204 223.416,351.906 191.644,349.965 180.333 C 348.435 171.418,346.696 173.717,347.444 183.667 M93.857 178.109 C 95.293 181.851,94.785 201.595,93.265 201.088 C 90.561 200.187,86.172 192.000,88.393 192.000 C 91.155 192.000,92.171 188.624,90.629 184.568 C 89.917 182.694,89.333 179.999,89.333 178.580 C 89.333 175.482,92.714 175.130,93.857 178.109 M9.080 179.667 C 8.832 180.950,7.747 182.000,6.667 182.000 C 5.587 182.000,4.501 180.950,4.254 179.667 C 3.939 178.030,4.658 177.333,6.667 177.333 C 8.675 177.333,9.395 178.030,9.080 179.667 M65.610 183.352 C 63.751 190.302,63.430 207.176,65.178 206.096 C 65.825 205.696,66.738 201.911,67.207 197.684 C 67.675 193.458,68.402 187.150,68.821 183.667 C 69.788 175.632,67.729 175.431,65.610 183.352 M395.749 179.651 C 395.080 183.127,390.667 183.515,390.667 180.098 C 390.667 178.190,391.523 177.333,393.431 177.333 C 395.339 177.333,396.057 178.051,395.749 179.651 M277.819 185.072 C 282.382 191.657,282.298 192.000,276.111 192.000 C 269.948 192.000,268.977 190.280,271.783 184.333 C 274.264 179.075,273.608 178.995,277.819 185.072 M396.000 190.079 C 396.000 191.135,395.100 192.000,394.000 192.000 C 391.992 192.000,391.259 189.185,392.853 187.592 C 394.097 186.347,396.000 187.851,396.000 190.079 M8.000 190.000 C 8.000 191.100,7.100 192.000,6.000 192.000 C 4.900 192.000,4.000 191.100,4.000 190.000 C 4.000 188.900,4.900 188.000,6.000 188.000 C 7.100 188.000,8.000 188.900,8.000 190.000 M46.242 196.770 C 45.423 201.813,46.205 205.333,48.143 205.333 C 49.679 205.333,49.705 193.720,48.170 192.772 C 47.530 192.376,46.663 194.176,46.242 196.770 M180.836 194.557 C 183.862 195.931,186.747 197.718,187.248 198.528 C 188.431 200.443,186.301 200.435,184.383 198.516 C 182.436 196.569,180.000 198.155,180.000 201.370 C 180.000 203.129,179.357 203.670,177.920 203.118 C 176.531 202.585,175.594 203.263,175.098 205.160 C 174.603 207.056,173.299 208.000,171.178 208.000 C 169.430 208.000,168.000 208.733,168.000 209.630 C 168.000 210.547,166.788 210.048,165.227 208.487 L 162.455 205.714 166.227 198.876 C 170.479 191.171,172.235 190.651,180.836 194.557 M238.705 205.333 C 239.538 205.333,239.271 206.253,238.095 207.429 C 236.943 208.581,236.000 210.686,236.000 212.107 C 236.000 213.527,234.216 217.153,232.035 220.164 C 228.890 224.505,228.350 226.162,229.425 228.171 C 230.528 230.232,228.901 234.035,220.724 248.522 C 212.394 263.280,210.667 267.355,210.667 272.252 C 210.667 277.584,206.045 284.000,202.205 284.000 C 199.526 284.000,200.826 274.036,204.756 264.458 C 207.210 258.476,210.138 249.613,211.263 244.763 C 213.316 235.908,216.867 227.717,221.507 221.128 C 224.327 217.124,224.716 210.452,222.500 204.095 C 221.381 200.884,221.390 198.935,222.538 196.416 L 224.076 193.040 230.648 199.187 C 234.262 202.567,237.888 205.333,238.705 205.333 M8.000 200.000 C 8.000 202.760,4.783 203.679,3.333 201.333 C 2.217 199.528,3.723 197.333,6.079 197.333 C 7.135 197.333,8.000 198.533,8.000 200.000 M396.667 200.000 C 396.667 201.080,395.617 202.166,394.333 202.413 C 392.696 202.728,392.000 202.008,392.000 200.000 C 392.000 197.992,392.696 197.272,394.333 197.587 C 395.617 197.834,396.667 198.920,396.667 200.000 M143.409 204.838 C 145.934 207.516,148.000 210.729,148.000 211.980 C 148.000 213.230,149.287 215.396,150.860 216.793 C 160.119 225.016,160.397 244.156,151.224 241.853 C 148.515 241.173,147.784 241.820,145.877 246.584 C 143.620 252.227,138.620 256.000,133.400 256.000 C 129.918 256.000,129.950 254.141,133.531 248.346 C 136.940 242.832,134.734 232.673,128.720 226.184 L 125.461 222.667 128.652 222.667 C 137.188 222.667,132.964 216.847,123.386 215.411 C 114.442 214.070,108.002 217.216,107.993 222.932 C 107.980 230.304,105.480 237.333,102.871 237.333 C 98.019 237.333,95.151 230.456,99.333 228.851 C 101.569 227.993,102.021 224.582,100.059 223.370 C 99.358 222.936,96.535 223.522,93.786 224.670 C 87.341 227.363,82.121 226.184,78.601 221.240 C 75.185 216.443,76.124 214.667,82.075 214.667 C 84.597 214.667,90.411 212.906,94.996 210.753 C 102.735 207.121,103.797 206.948,109.786 208.339 L 116.238 209.837 121.694 204.104 C 128.770 196.667,135.930 196.909,143.409 204.838 M317.333 200.486 C 317.333 201.506,318.261 203.110,319.396 204.052 C 324.868 208.593,326.520 213.020,328.051 227.233 L 329.600 241.620 322.077 256.477 L 314.555 271.333 314.944 286.000 C 315.330 300.546,317.585 306.401,318.410 295.000 C 318.783 289.838,321.333 286.640,321.333 291.333 C 321.333 292.433,321.861 293.333,322.506 293.333 C 323.151 293.333,323.926 285.890,324.229 276.792 C 324.757 260.939,324.958 259.963,329.056 253.370 C 333.212 246.684,333.333 246.063,333.333 231.408 C 333.333 219.629,333.771 215.963,335.333 214.667 C 338.217 212.273,337.925 211.588,331.987 206.816 C 324.939 201.153,317.333 197.867,317.333 200.486 M273.333 205.170 C 273.333 206.875,269.413 209.857,268.444 208.889 C 267.476 207.921,270.458 204.000,272.163 204.000 C 272.807 204.000,273.333 204.527,273.333 205.170 M8.000 210.000 C 8.000 211.100,7.100 212.000,6.000 212.000 C 4.900 212.000,4.000 211.100,4.000 210.000 C 4.000 208.900,4.900 208.000,6.000 208.000 C 7.100 208.000,8.000 208.900,8.000 210.000 M256.848 214.817 C 258.478 216.170,259.080 216.155,259.957 214.737 C 261.514 212.217,263.103 220.309,262.020 225.241 C 260.783 230.876,251.382 235.387,239.700 235.953 C 239.168 235.979,239.121 234.050,239.595 231.667 C 241.840 220.373,253.436 203.676,254.413 210.328 C 254.641 211.874,255.736 213.895,256.848 214.817 M396.000 210.000 C 396.000 211.100,395.100 212.000,394.000 212.000 C 392.900 212.000,392.000 211.100,392.000 210.000 C 392.000 208.900,392.900 208.000,394.000 208.000 C 395.100 208.000,396.000 208.900,396.000 210.000 M179.269 220.124 C 178.096 222.392,176.800 223.911,176.388 223.499 C 175.621 222.732,179.521 216.000,180.732 216.000 C 181.100 216.000,180.442 217.856,179.269 220.124 M8.667 220.093 C 8.667 221.122,7.617 222.166,6.333 222.413 C 4.035 222.855,3.085 220.026,4.917 218.194 C 6.314 216.797,8.667 217.988,8.667 220.093 M395.749 220.349 C 396.057 221.949,395.339 222.667,393.431 222.667 C 391.523 222.667,390.667 221.810,390.667 219.902 C 390.667 216.485,395.080 216.873,395.749 220.349 M10.667 230.000 C 10.667 231.111,9.481 232.000,8.000 232.000 C 6.519 232.000,5.333 231.111,5.333 230.000 C 5.333 228.889,6.519 228.000,8.000 228.000 C 9.481 228.000,10.667 228.889,10.667 230.000 M394.667 230.000 C 394.667 231.111,393.481 232.000,392.000 232.000 C 390.519 232.000,389.333 231.111,389.333 230.000 C 389.333 228.889,390.519 228.000,392.000 228.000 C 393.481 228.000,394.667 228.889,394.667 230.000 M195.349 238.550 C 194.756 242.867,193.099 246.939,190.717 249.937 L 187.009 254.602 186.198 249.635 C 185.752 246.902,185.022 243.109,184.577 241.204 C 183.872 238.188,184.513 237.300,189.550 234.322 C 196.540 230.189,196.503 230.162,195.349 238.550 M86.394 236.525 C 90.261 238.525,90.667 239.317,90.667 244.856 C 90.667 250.409,90.925 250.910,93.453 250.249 C 96.127 249.550,96.203 249.854,95.318 257.760 C 94.215 267.620,94.176 267.670,85.883 269.717 C 81.086 270.901,79.330 271.973,79.322 273.723 C 79.315 275.037,78.426 276.658,77.345 277.326 C 72.231 280.486,82.008 286.296,94.140 287.307 C 105.223 288.230,105.428 288.312,107.188 292.525 C 109.803 298.784,122.949 302.479,126.667 298.000 C 129.118 295.047,130.667 295.563,130.667 299.333 C 130.667 303.071,133.424 303.770,135.988 300.681 C 138.246 297.960,140.000 299.393,140.000 303.960 C 140.000 310.450,120.629 317.775,119.753 311.617 C 119.394 309.091,118.631 308.729,114.446 309.093 C 109.427 309.530,102.781 306.918,98.000 302.630 C 96.533 301.314,89.933 298.151,83.333 295.600 C 65.499 288.707,59.073 272.873,70.984 265.174 C 73.654 263.447,71.336 259.336,67.442 258.891 C 65.314 258.647,62.198 257.548,60.518 256.447 C 58.813 255.329,56.293 254.817,54.813 255.287 C 51.788 256.247,49.333 252.843,49.333 247.688 C 49.333 241.327,55.663 239.054,58.518 244.390 C 59.418 246.070,62.786 249.035,66.003 250.978 C 69.219 252.921,72.868 256.496,74.112 258.922 C 78.121 266.746,81.333 266.849,81.333 259.152 C 81.333 254.216,78.922 251.198,68.912 243.610 C 64.276 240.095,62.756 236.393,65.000 234.081 C 66.629 232.404,81.769 234.134,86.394 236.525 M125.775 236.201 C 126.845 237.910,125.431 241.823,119.449 253.713 C 110.856 270.792,110.695 272.575,117.343 277.021 C 123.107 280.876,125.003 284.519,122.693 287.302 C 120.081 290.449,118.039 289.771,112.856 284.034 C 105.031 275.372,104.538 262.085,111.348 243.411 L 115.074 233.197 119.735 233.598 C 122.299 233.819,125.017 234.990,125.775 236.201 M176.000 239.148 C 176.000 241.788,175.461 242.194,172.667 241.660 C 168.966 240.952,168.552 239.982,170.933 237.600 C 173.527 235.006,176.000 235.762,176.000 239.148 M12.000 240.000 C 12.000 241.481,11.111 242.667,10.000 242.667 C 8.889 242.667,8.000 241.481,8.000 240.000 C 8.000 238.519,8.889 237.333,10.000 237.333 C 11.111 237.333,12.000 238.519,12.000 240.000 M392.000 240.000 C 392.000 241.481,391.111 242.667,390.000 242.667 C 388.889 242.667,388.000 241.481,388.000 240.000 C 388.000 238.519,388.889 237.333,390.000 237.333 C 391.111 237.333,392.000 238.519,392.000 240.000 M242.667 244.453 C 242.667 245.436,240.774 251.586,238.461 258.120 C 236.148 264.654,233.539 272.670,232.664 275.932 C 230.462 284.141,227.299 285.070,228.416 277.180 C 231.107 258.189,233.312 245.114,234.017 243.973 C 235.260 241.961,242.667 242.372,242.667 244.453 M14.667 250.000 C 14.667 251.111,13.481 252.000,12.000 252.000 C 9.344 252.000,8.532 250.579,10.222 248.889 C 11.846 247.265,14.667 247.970,14.667 250.000 M390.334 250.333 C 390.659 251.311,389.740 252.000,388.111 252.000 C 386.473 252.000,385.333 251.139,385.333 249.902 C 385.333 247.452,389.494 247.810,390.334 250.333 M177.333 257.562 C 177.333 259.887,176.351 262.876,175.149 264.203 C 173.600 265.916,173.364 267.108,174.337 268.308 C 175.716 270.008,179.171 285.102,180.599 295.667 C 181.353 301.249,181.305 301.333,177.349 301.333 C 172.970 301.333,172.579 300.447,174.803 295.568 C 176.030 292.875,175.480 290.365,171.469 280.340 C 165.632 265.750,165.594 264.575,170.764 258.304 C 175.774 252.226,177.333 252.050,177.333 257.562 M152.000 256.621 C 152.000 257.920,142.370 274.693,141.214 275.407 C 136.812 278.127,140.326 263.992,145.000 260.174 C 149.686 256.346,152.000 255.171,152.000 256.621 M189.744 259.000 C 192.516 261.587,193.090 263.701,193.915 274.367 C 194.441 281.169,195.423 288.655,196.096 291.003 C 198.723 300.162,194.867 302.376,189.664 294.696 C 184.701 287.371,181.790 256.000,186.073 256.000 C 186.324 256.000,187.976 257.350,189.744 259.000 M17.333 260.000 C 17.333 261.467,16.469 262.667,15.412 262.667 C 13.057 262.667,11.551 260.472,12.667 258.667 C 14.117 256.321,17.333 257.240,17.333 260.000 M387.019 258.130 C 388.317 259.428,386.535 262.667,384.524 262.667 C 383.502 262.667,382.667 261.467,382.667 260.000 C 382.667 257.490,385.263 256.374,387.019 258.130 M287.624 266.333 C 287.250 268.350,284.429 275.932,281.356 283.181 C 277.127 293.155,275.585 298.762,275.021 306.223 C 274.186 317.263,273.927 317.652,268.175 316.502 C 264.470 315.761,264.223 315.409,265.605 312.841 C 266.446 311.278,267.567 307.900,268.097 305.333 C 269.364 299.201,273.171 283.809,275.623 274.906 C 278.212 265.507,289.235 257.632,287.624 266.333 M125.333 268.079 C 125.333 269.502,124.733 270.667,124.000 270.667 C 123.267 270.667,122.667 269.131,122.667 267.255 C 122.667 265.319,123.244 264.199,124.000 264.667 C 124.733 265.120,125.333 266.655,125.333 268.079 M21.098 269.777 C 21.388 271.276,20.628 272.000,18.764 272.000 C 17.244 272.000,16.000 271.200,16.000 270.222 C 16.000 266.139,20.319 265.761,21.098 269.777 M383.764 269.777 C 384.055 271.276,383.295 272.000,381.431 272.000 C 379.911 272.000,378.667 271.200,378.667 270.222 C 378.667 266.139,382.986 265.761,383.764 269.777 M219.259 273.926 C 218.757 276.602,218.080 278.524,217.754 278.198 C 217.428 277.872,217.572 275.417,218.074 272.741 C 218.576 270.065,219.253 268.142,219.579 268.468 C 219.905 268.794,219.761 271.250,219.259 273.926 M159.969 280.873 C 164.565 279.954,165.818 282.213,163.846 287.868 C 162.879 290.643,162.908 292.627,163.946 294.565 C 165.532 297.530,159.483 302.651,154.380 302.662 C 148.600 302.674,147.274 286.048,152.333 276.994 L 155.333 271.626 155.756 276.628 C 156.155 281.348,156.393 281.588,159.969 280.873 M25.098 279.110 C 25.388 280.609,24.628 281.333,22.764 281.333 C 21.244 281.333,20.000 280.533,20.000 279.556 C 20.000 275.472,24.319 275.095,25.098 279.110 M379.764 279.110 C 380.055 280.609,379.295 281.333,377.431 281.333 C 375.911 281.333,374.667 280.533,374.667 279.556 C 374.667 275.472,378.986 275.095,379.764 279.110 M220.000 288.047 C 220.000 289.607,213.462 296.573,212.707 295.818 C 212.303 295.414,213.018 292.264,214.295 288.818 C 216.403 283.132,220.000 282.646,220.000 288.047 M29.098 288.444 C 29.347 289.730,28.678 290.667,27.510 290.667 C 25.033 290.667,23.538 288.493,24.710 286.596 C 25.916 284.645,28.578 285.766,29.098 288.444 M375.764 288.444 C 376.055 289.943,375.295 290.667,373.431 290.667 C 371.911 290.667,370.667 289.867,370.667 288.889 C 370.667 284.805,374.986 284.428,375.764 288.444 M34.000 297.333 C 34.000 298.413,32.950 299.499,31.667 299.746 C 30.030 300.061,29.333 299.342,29.333 297.333 C 29.333 295.325,30.030 294.605,31.667 294.920 C 32.950 295.168,34.000 296.253,34.000 297.333 M370.667 297.333 C 370.667 299.111,369.778 300.000,368.000 300.000 C 365.430 300.000,364.387 297.391,366.222 295.556 C 368.058 293.720,370.667 294.764,370.667 297.333 M81.910 305.518 C 94.441 311.531,96.444 313.713,85.457 309.382 C 75.990 305.651,75.002 305.840,68.495 312.631 C 61.402 320.034,60.267 318.634,64.831 308.111 C 69.011 298.473,67.657 298.679,81.910 305.518 M203.434 309.011 C 201.825 310.619,201.058 307.969,202.099 304.395 L 203.185 300.667 203.693 304.455 C 203.972 306.539,203.856 308.589,203.434 309.011 M39.333 305.426 C 39.333 306.455,38.283 307.499,37.000 307.746 C 34.702 308.189,33.752 305.360,35.583 303.528 C 36.981 302.130,39.333 303.321,39.333 305.426 M365.098 305.777 C 365.388 307.276,364.628 308.000,362.764 308.000 C 361.244 308.000,360.000 307.200,360.000 306.222 C 360.000 302.139,364.319 301.761,365.098 305.777 M45.333 313.921 C 45.333 314.978,44.855 316.138,44.270 316.500 C 42.564 317.554,39.569 315.109,40.575 313.482 C 41.897 311.342,45.333 311.659,45.333 313.921 M105.994 316.196 C 108.931 317.557,109.833 318.304,108.000 317.855 C 106.167 317.406,102.267 315.913,99.333 314.536 C 96.400 313.159,95.498 312.413,97.328 312.877 C 99.158 313.341,103.058 314.835,105.994 316.196 M360.000 314.000 C 360.000 315.111,358.815 316.000,357.333 316.000 C 355.852 316.000,354.667 315.111,354.667 314.000 C 354.667 312.889,355.852 312.000,357.333 312.000 C 358.815 312.000,360.000 312.889,360.000 314.000 M144.654 316.068 C 143.280 323.202,136.484 325.172,124.000 322.057 L 116.667 320.227 127.636 320.113 C 137.805 320.008,138.765 319.757,140.789 316.667 C 143.434 312.630,145.374 312.329,144.654 316.068 M352.894 323.221 C 352.435 324.419,351.239 324.957,350.050 324.502 C 347.583 323.555,347.341 320.464,349.667 319.611 C 352.023 318.747,353.834 320.773,352.894 323.221 M52.000 322.000 C 52.000 323.111,50.815 324.000,49.333 324.000 C 47.852 324.000,46.667 323.111,46.667 322.000 C 46.667 320.889,47.852 320.000,49.333 320.000 C 50.815 320.000,52.000 320.889,52.000 322.000 M180.653 323.475 C 185.427 325.386,189.333 327.449,189.333 328.058 C 189.333 328.982,172.508 322.149,170.778 320.522 C 169.488 319.310,172.493 320.209,180.653 323.475 M248.600 321.102 C 247.556 322.011,232.262 324.268,197.667 328.621 C 195.283 328.920,193.333 328.671,193.333 328.066 C 193.333 327.461,199.483 326.250,207.000 325.375 C 214.517 324.499,226.667 323.003,234.000 322.049 C 241.333 321.096,247.903 320.245,248.600 320.158 C 249.400 320.058,249.400 320.406,248.600 321.102 M58.667 330.000 C 58.667 331.111,57.481 332.000,56.000 332.000 C 54.519 332.000,53.333 331.111,53.333 330.000 C 53.333 328.889,54.519 328.000,56.000 328.000 C 57.481 328.000,58.667 328.889,58.667 330.000 M346.667 330.000 C 346.667 331.111,345.481 332.000,344.000 332.000 C 342.519 332.000,341.333 331.111,341.333 330.000 C 341.333 328.889,342.519 328.000,344.000 328.000 C 345.481 328.000,346.667 328.889,346.667 330.000 M65.098 337.777 C 65.388 339.276,64.628 340.000,62.764 340.000 C 61.244 340.000,60.000 339.200,60.000 338.222 C 60.000 334.139,64.319 333.761,65.098 337.777 M339.764 337.777 C 340.055 339.276,339.295 340.000,337.431 340.000 C 335.911 340.000,334.667 339.200,334.667 338.222 C 334.667 334.139,338.986 333.761,339.764 337.777 M128.952 336.826 C 127.361 338.417,127.884 340.000,130.000 340.000 C 131.601 340.000,132.000 342.005,132.000 350.042 C 132.000 357.738,131.533 360.263,130.000 360.851 C 126.214 362.304,128.010 364.000,133.333 364.000 C 138.395 364.000,140.240 362.463,137.333 360.667 C 136.600 360.213,136.029 357.028,136.065 353.588 L 136.130 347.333 139.562 355.723 C 143.660 365.742,145.143 365.661,148.667 355.229 L 151.333 347.333 151.757 353.285 C 152.059 357.524,151.580 359.677,150.091 360.765 C 146.709 363.238,147.629 364.000,154.000 364.000 C 159.635 364.000,161.688 362.534,158.667 360.667 C 157.933 360.213,157.333 355.378,157.333 349.921 C 157.333 344.196,157.897 340.000,158.667 340.000 C 159.400 340.000,160.000 339.062,160.000 337.916 C 160.000 336.381,158.901 335.941,155.834 336.249 C 151.575 336.676,151.286 337.126,146.122 351.333 C 145.313 353.558,144.706 352.894,142.460 347.333 C 140.979 343.667,139.309 339.767,138.749 338.667 C 137.672 336.550,130.564 335.214,128.952 336.826 M163.176 337.588 C 162.636 338.461,162.901 339.411,163.764 339.699 C 165.719 340.351,165.934 359.471,164.000 360.667 C 159.886 363.209,164.473 364.000,183.333 364.000 C 202.194 364.000,206.780 363.209,202.667 360.667 C 199.471 358.691,201.287 354.667,205.375 354.667 C 209.760 354.667,212.050 357.817,209.510 360.356 C 206.547 363.319,208.133 364.000,218.000 364.000 C 227.116 364.000,230.164 362.828,226.667 360.667 C 225.933 360.213,225.333 356.789,225.333 353.056 L 225.333 346.269 232.045 355.134 C 240.727 366.603,241.333 366.399,241.333 352.000 C 241.333 344.889,241.877 340.000,242.667 340.000 C 243.400 340.000,244.000 339.100,244.000 338.000 C 244.000 336.603,242.593 336.000,239.333 336.000 C 234.594 336.000,233.241 338.041,236.091 340.891 C 236.874 341.674,237.324 344.511,237.091 347.194 L 236.667 352.073 231.333 344.073 C 227.042 337.637,225.299 336.066,222.412 336.037 C 217.909 335.991,216.530 338.054,219.248 340.772 C 222.411 343.935,222.237 360.370,219.048 359.755 C 217.507 359.459,215.444 355.519,212.715 347.663 C 207.403 332.374,205.472 332.239,200.616 346.819 C 198.634 352.770,196.591 356.956,196.075 356.121 C 195.434 355.084,194.364 355.458,192.695 357.302 C 187.048 363.542,184.000 361.022,184.000 350.111 C 184.000 343.712,184.554 340.038,185.569 339.699 C 188.644 338.674,185.099 336.000,180.667 336.000 C 176.234 336.000,172.690 338.674,175.764 339.699 C 178.615 340.649,177.864 361.634,175.000 361.067 C 172.978 360.667,172.669 358.964,172.686 348.303 L 172.705 336.000 168.431 336.000 C 166.081 336.000,163.716 336.715,163.176 337.588 M250.909 339.334 C 241.927 346.892,246.598 364.067,257.606 363.956 C 273.027 363.800,274.395 339.612,259.155 336.564 C 256.034 335.940,254.218 336.550,250.909 339.334 M261.240 341.888 C 264.380 345.671,262.483 359.265,258.741 359.793 C 254.481 360.395,252.000 356.910,252.000 350.324 C 252.000 341.380,257.017 336.799,261.240 341.888 M72.000 344.000 C 72.000 345.481,71.111 346.667,70.000 346.667 C 68.889 346.667,68.000 345.481,68.000 344.000 C 68.000 342.519,68.889 341.333,70.000 341.333 C 71.111 341.333,72.000 342.519,72.000 344.000 M332.000 344.000 C 332.000 345.481,331.111 346.667,330.000 346.667 C 328.889 346.667,328.000 345.481,328.000 344.000 C 328.000 342.519,328.889 341.333,330.000 341.333 C 331.111 341.333,332.000 342.519,332.000 344.000 M207.906 349.667 C 207.958 350.217,207.036 350.667,205.857 350.667 C 204.451 350.667,203.993 349.942,204.524 348.558 C 204.969 347.398,205.376 345.748,205.427 344.891 C 205.517 343.391,207.715 347.624,207.906 349.667 M80.000 350.667 C 80.000 353.427,76.783 354.346,75.333 352.000 C 74.217 350.194,75.723 348.000,78.079 348.000 C 79.135 348.000,80.000 349.200,80.000 350.667 M324.000 350.667 C 324.000 352.148,323.111 353.333,322.000 353.333 C 320.889 353.333,320.000 352.148,320.000 350.667 C 320.000 349.185,320.889 348.000,322.000 348.000 C 323.111 348.000,324.000 349.185,324.000 350.667 M88.000 357.333 C 88.000 358.815,87.111 360.000,86.000 360.000 C 84.889 360.000,84.000 358.815,84.000 357.333 C 84.000 355.852,84.889 354.667,86.000 354.667 C 87.111 354.667,88.000 355.852,88.000 357.333 M316.000 357.333 C 316.000 358.815,315.111 360.000,314.000 360.000 C 312.889 360.000,312.000 358.815,312.000 357.333 C 312.000 355.852,312.889 354.667,314.000 354.667 C 315.111 354.667,316.000 355.852,316.000 357.333 M96.000 362.667 C 96.000 364.148,95.111 365.333,94.000 365.333 C 92.889 365.333,92.000 364.148,92.000 362.667 C 92.000 361.185,92.889 360.000,94.000 360.000 C 95.111 360.000,96.000 361.185,96.000 362.667 M308.000 362.667 C 308.000 364.148,307.111 365.333,306.000 365.333 C 304.889 365.333,304.000 364.148,304.000 362.667 C 304.000 361.185,304.889 360.000,306.000 360.000 C 307.111 360.000,308.000 361.185,308.000 362.667 M105.098 368.444 C 105.388 369.943,104.628 370.667,102.764 370.667 C 101.244 370.667,100.000 369.867,100.000 368.889 C 100.000 364.805,104.319 364.428,105.098 368.444 M299.764 368.444 C 300.055 369.943,299.295 370.667,297.431 370.667 C 295.911 370.667,294.667 369.867,294.667 368.889 C 294.667 364.805,298.986 364.428,299.764 368.444 M290.667 373.412 C 290.667 376.532,286.920 376.878,285.764 373.865 C 284.922 371.672,287.703 368.992,289.603 370.167 C 290.188 370.528,290.667 371.989,290.667 373.412 M114.000 373.352 C 114.000 376.210,110.126 375.797,109.564 372.879 C 109.221 371.097,109.764 370.554,111.546 370.897 C 112.896 371.157,114.000 372.262,114.000 373.352 M123.764 377.777 C 124.055 379.276,123.295 380.000,121.431 380.000 C 119.911 380.000,118.667 379.200,118.667 378.222 C 118.667 374.139,122.986 373.761,123.764 377.777 M281.333 377.333 C 281.333 378.800,280.469 380.000,279.412 380.000 C 277.057 380.000,275.551 377.806,276.667 376.000 C 278.117 373.654,281.333 374.573,281.333 377.333 M132.667 381.333 C 132.667 382.413,131.617 383.499,130.333 383.746 C 128.696 384.061,128.000 383.342,128.000 381.333 C 128.000 379.325,128.696 378.605,130.333 378.920 C 131.617 379.168,132.667 380.253,132.667 381.333 M272.000 381.333 C 272.000 383.111,271.111 384.000,269.333 384.000 C 266.764 384.000,265.720 381.391,267.556 379.556 C 269.391 377.720,272.000 378.764,272.000 381.333 M262.219 385.910 C 261.778 387.060,260.779 388.000,260.000 388.000 C 257.708 388.000,256.780 383.833,258.795 382.588 C 261.161 381.125,263.270 383.172,262.219 385.910 M142.667 384.667 C 142.667 385.778,141.481 386.667,140.000 386.667 C 138.519 386.667,137.333 385.778,137.333 384.667 C 137.333 383.556,138.519 382.667,140.000 382.667 C 141.481 382.667,142.667 383.556,142.667 384.667 M152.000 387.191 C 152.000 389.711,148.391 390.941,147.536 388.713 C 146.729 386.610,147.744 385.333,150.222 385.333 C 151.200 385.333,152.000 386.169,152.000 387.191 M252.000 387.778 C 252.000 389.122,251.100 390.222,250.000 390.222 C 248.900 390.222,248.000 389.122,248.000 387.778 C 248.000 386.433,248.900 385.333,250.000 385.333 C 251.100 385.333,252.000 386.433,252.000 387.778 M162.667 390.000 C 162.667 391.111,161.481 392.000,160.000 392.000 C 158.519 392.000,157.333 391.111,157.333 390.000 C 157.333 388.889,158.519 388.000,160.000 388.000 C 161.481 388.000,162.667 388.889,162.667 390.000 M242.667 390.000 C 242.667 391.111,241.481 392.000,240.000 392.000 C 238.519 392.000,237.333 391.111,237.333 390.000 C 237.333 388.889,238.519 388.000,240.000 388.000 C 241.481 388.000,242.667 388.889,242.667 390.000 M172.000 392.000 C 172.000 393.467,171.135 394.667,170.079 394.667 C 167.723 394.667,166.217 392.472,167.333 390.667 C 168.783 388.321,172.000 389.240,172.000 392.000 M232.667 392.000 C 232.667 393.080,231.617 394.166,230.333 394.413 C 228.696 394.728,228.000 394.008,228.000 392.000 C 228.000 389.992,228.696 389.272,230.333 389.587 C 231.617 389.834,232.667 390.920,232.667 392.000 M182.000 393.426 C 182.000 394.455,180.950 395.499,179.667 395.746 C 177.368 396.189,176.418 393.360,178.250 391.528 C 179.648 390.130,182.000 391.321,182.000 393.426 M222.431 393.777 C 222.681 395.063,222.011 396.000,220.843 396.000 C 218.366 396.000,216.871 393.826,218.043 391.930 C 219.250 389.978,221.912 391.099,222.431 393.777 M192.000 394.000 C 192.000 395.100,191.100 396.000,190.000 396.000 C 188.900 396.000,188.000 395.100,188.000 394.000 C 188.000 392.900,188.900 392.000,190.000 392.000 C 191.100 392.000,192.000 392.900,192.000 394.000 M202.667 393.857 C 202.667 395.869,199.428 397.650,198.130 396.353 C 196.374 394.597,197.490 392.000,200.000 392.000 C 201.467 392.000,202.667 392.836,202.667 393.857 M212.000 394.000 C 212.000 395.100,211.100 396.000,210.000 396.000 C 208.900 396.000,208.000 395.100,208.000 394.000 C 208.000 392.900,208.900 392.000,210.000 392.000 C 211.100 392.000,212.000 392.900,212.000 394.000 " stroke="none" fill="#000000" fill-rule="evenodd"></path></g></svg>