<svg id="svg" version="1.1" xmlns="http://www.w3.org/2000/svg" xmlns:xlink="http://www.w3.org/1999/xlink" width="400" height="395.0920245398773" viewBox="0, 0, 400,395.0920245398773"><g id="svgg"><path id="path0" d="M0.000 197.628 L 0.000 395.257 200.000 395.257 L 400.000 395.257 400.000 197.628 L 400.000 0.000 200.000 0.000 L 0.000 0.000 0.000 197.628 M94.269 38.766 C 95.356 38.975,98.202 39.322,100.593 39.536 C 102.984 39.750,107.342 40.173,110.277 40.477 C 113.211 40.781,117.569 41.230,119.960 41.475 C 122.352 41.719,125.642 42.095,127.273 42.309 C 128.903 42.524,132.549 42.876,135.375 43.092 C 140.442 43.479,142.225 43.673,151.581 44.856 C 154.190 45.186,157.213 45.456,158.300 45.457 C 159.387 45.457,161.877 45.721,163.834 46.042 C 165.791 46.363,168.184 46.630,169.153 46.633 C 170.121 46.637,172.612 46.898,174.686 47.212 C 176.761 47.527,181.571 48.074,185.375 48.427 C 189.180 48.780,193.626 49.248,195.257 49.467 C 196.887 49.686,200.978 50.109,204.348 50.407 C 211.415 51.031,216.287 51.529,223.518 52.363 C 226.344 52.690,231.324 53.223,234.585 53.549 C 237.846 53.875,242.204 54.343,244.269 54.591 C 246.334 54.838,249.536 55.169,251.383 55.326 C 255.463 55.674,261.553 56.363,267.391 57.139 C 269.783 57.457,272.540 57.714,273.518 57.711 C 274.496 57.707,277.342 57.966,279.842 58.287 C 282.342 58.607,286.344 59.066,288.735 59.306 C 291.126 59.546,295.484 59.999,298.419 60.313 C 301.354 60.627,306.334 61.137,309.486 61.446 C 321.671 62.641,323.999 62.887,326.588 63.256 C 328.060 63.465,329.838 63.639,330.541 63.642 C 332.412 63.650,333.597 64.049,333.597 64.671 C 333.597 65.369,348.941 65.297,213.159 65.233 C 102.604 65.181,94.034 65.224,93.099 65.836 L 92.093 66.495 92.096 211.783 C 92.098 291.691,91.948 357.222,91.764 357.406 C 91.060 358.110,90.568 356.582,90.396 353.158 C 89.990 345.111,89.284 336.047,88.923 334.269 C 88.711 333.226,88.538 331.008,88.538 329.341 C 88.538 327.674,88.280 323.992,87.965 321.159 C 87.227 314.522,86.489 305.742,84.824 283.794 C 83.661 268.458,83.378 264.944,82.949 260.474 C 82.709 257.974,82.374 253.528,82.205 250.593 C 82.036 247.658,81.706 243.389,81.471 241.107 C 81.235 238.824,80.768 233.488,80.432 229.249 C 80.095 225.010,79.557 218.607,79.235 215.020 C 78.913 211.433,78.461 206.008,78.231 202.964 C 77.428 192.359,76.699 183.135,75.887 173.320 C 75.437 167.885,74.911 161.126,74.717 158.300 C 74.359 153.101,73.854 147.016,73.093 138.735 C 72.864 136.235,72.518 131.877,72.326 129.051 C 72.134 126.225,71.794 121.957,71.570 119.565 C 70.886 112.271,70.330 105.591,69.959 100.198 C 69.764 97.372,69.427 93.192,69.210 90.909 C 68.867 87.294,68.032 76.562,67.366 67.194 C 67.251 65.563,66.978 62.848,66.760 61.160 C 66.245 57.170,67.653 55.947,68.568 59.590 C 69.881 64.824,77.564 69.296,83.767 68.436 C 94.758 66.913,100.189 55.335,94.390 45.789 C 92.704 43.013,88.263 39.130,86.775 39.130 C 86.127 39.130,85.973 38.664,86.460 38.178 C 86.789 37.848,91.252 38.184,94.269 38.766 M333.465 101.482 C 332.714 127.674,331.611 148.279,330.444 157.905 C 330.233 159.644,329.874 162.846,329.646 165.020 C 328.807 173.013,328.408 176.119,328.044 177.470 C 327.840 178.231,327.674 179.476,327.675 180.237 C 327.677 180.998,327.420 182.866,327.105 184.387 C 326.790 185.909,326.243 188.933,325.891 191.107 C 324.862 197.455,322.146 211.111,321.095 215.217 C 318.527 225.249,317.626 228.612,316.400 232.751 C 315.844 234.629,315.020 237.411,314.570 238.933 C 314.120 240.455,313.503 242.260,313.200 242.945 C 312.896 243.630,312.648 244.465,312.648 244.799 C 312.648 245.134,312.491 245.505,312.298 245.624 C 312.105 245.744,311.823 246.503,311.672 247.311 C 311.520 248.119,310.877 249.925,310.243 251.323 C 309.610 252.721,309.091 254.160,309.091 254.521 C 309.091 254.882,308.943 255.347,308.762 255.553 C 308.582 255.760,307.700 257.796,306.803 260.079 C 305.906 262.362,304.562 265.474,303.817 266.996 C 303.072 268.518,301.919 271.008,301.256 272.530 C 300.593 274.051,299.423 276.453,298.658 277.866 C 297.892 279.279,296.798 281.324,296.227 282.411 C 295.656 283.498,294.982 284.743,294.729 285.178 C 294.476 285.613,293.661 287.036,292.918 288.340 C 292.175 289.644,290.263 292.693,288.669 295.114 C 287.075 297.536,285.771 299.627,285.771 299.762 C 285.771 299.897,285.338 300.494,284.809 301.090 C 284.280 301.686,283.368 302.885,282.781 303.755 C 281.550 305.581,281.116 306.127,276.027 312.253 C 269.946 319.573,260.681 328.793,255.374 332.806 C 254.656 333.350,253.311 334.417,252.386 335.178 C 248.679 338.227,240.630 343.524,236.120 345.883 C 234.573 346.692,232.607 347.796,231.751 348.337 C 230.110 349.372,226.684 351.026,222.727 352.692 C 221.423 353.241,219.822 353.970,219.170 354.313 C 218.518 354.656,217.708 354.937,217.372 354.938 C 217.035 354.940,216.590 355.102,216.383 355.299 C 216.177 355.496,215.385 355.834,214.625 356.049 C 213.864 356.264,212.596 356.718,211.807 357.059 C 209.705 357.966,209.387 357.507,207.066 350.198 C 206.617 348.785,206.008 346.917,205.711 346.047 C 203.264 338.875,202.654 330.010,203.775 317.892 C 204.803 306.774,204.425 306.459,197.697 312.829 C 190.236 319.892,185.054 320.325,178.199 314.456 C 176.603 313.090,174.896 311.845,174.407 311.690 C 173.307 311.342,172.444 309.937,173.204 309.732 C 175.862 309.015,177.998 308.541,179.717 308.285 C 182.441 307.880,186.331 305.919,189.399 303.405 C 194.365 299.337,199.298 298.130,203.054 300.064 C 204.607 300.864,206.049 300.632,205.550 299.663 C 202.325 293.403,201.300 284.454,203.572 282.398 C 204.541 281.521,204.556 280.386,203.620 278.850 C 201.314 275.069,200.618 269.865,201.820 265.399 C 202.664 262.265,202.654 251.892,201.806 251.044 C 200.834 250.072,200.170 250.805,198.043 255.203 C 195.124 261.234,194.583 262.609,193.085 267.787 C 192.708 269.091,191.986 271.403,191.481 272.925 C 190.976 274.447,190.374 276.749,190.143 278.040 C 189.679 280.629,188.583 281.923,188.030 280.534 C 187.922 280.262,187.147 279.693,186.308 279.269 C 185.469 278.845,184.466 278.234,184.079 277.912 C 183.219 277.196,182.795 277.562,181.385 280.237 C 180.869 281.215,180.133 282.440,179.749 282.958 C 178.846 284.179,178.868 285.475,179.842 288.245 C 181.201 292.113,180.961 295.447,179.202 297.105 C 177.334 298.867,176.878 298.647,176.875 295.981 C 176.871 292.600,174.490 289.730,171.678 289.719 C 168.761 289.706,163.700 287.805,161.660 285.955 C 157.125 281.842,151.266 282.976,149.625 288.286 C 149.208 289.638,148.221 288.242,148.221 286.299 C 148.221 279.427,153.870 277.349,166.154 279.702 C 172.593 280.936,173.236 280.827,174.580 278.284 C 175.091 277.319,175.772 276.238,176.094 275.882 C 177.255 274.598,176.800 273.755,174.111 272.209 C 171.325 270.606,170.892 269.694,172.431 268.667 C 175.440 266.659,181.818 258.322,181.818 256.397 C 181.818 256.057,181.975 255.681,182.167 255.562 C 183.281 254.874,185.231 246.126,185.783 239.347 C 186.659 228.576,185.222 216.689,184.013 224.704 C 183.650 227.109,182.581 231.274,181.969 232.668 C 181.669 233.353,181.423 234.108,181.423 234.345 C 181.423 235.394,177.320 243.643,175.799 245.652 C 175.634 245.870,174.920 246.789,174.212 247.695 C 173.504 248.601,172.658 249.694,172.332 250.123 C 166.638 257.613,154.232 265.066,152.399 262.099 C 152.279 261.906,151.720 261.632,151.156 261.490 C 150.592 261.349,149.745 260.870,149.275 260.427 L 148.419 259.622 149.538 258.763 C 150.723 257.855,155.927 252.782,156.704 251.779 C 161.388 245.730,164.781 238.018,165.660 231.423 C 165.863 229.901,166.198 228.123,166.405 227.470 C 166.942 225.773,167.633 213.068,167.263 211.686 C 166.667 209.459,165.632 210.342,165.618 213.091 C 165.571 222.202,152.911 238.790,142.095 243.915 C 137.109 246.277,129.403 244.219,132.806 241.434 C 141.190 234.575,147.588 223.814,150.039 212.451 C 151.408 206.104,152.186 192.622,151.206 192.245 C 150.300 191.898,150.214 192.057,149.539 195.319 C 148.361 201.013,145.732 207.922,143.425 211.383 C 142.802 212.318,142.292 213.182,142.292 213.303 C 142.292 214.260,136.676 220.134,133.399 222.604 C 127.295 227.204,123.109 227.902,118.752 225.047 C 117.796 224.422,117.371 222.530,118.186 222.530 C 118.903 222.530,124.502 216.909,126.720 213.962 C 130.360 209.125,132.879 202.918,134.552 194.664 C 134.904 192.925,135.392 190.702,135.636 189.723 C 135.880 188.745,136.214 186.966,136.378 185.771 C 136.542 184.575,136.779 183.330,136.904 183.004 C 137.029 182.678,137.308 180.366,137.523 177.866 C 137.738 175.366,138.110 171.453,138.349 169.170 C 139.243 160.662,137.506 160.519,135.963 168.972 C 132.786 186.381,125.070 200.212,116.008 204.743 C 110.315 207.589,104.554 205.709,107.864 202.085 C 115.499 193.725,117.743 183.120,117.794 155.138 C 117.812 145.138,117.977 135.800,118.161 134.387 C 118.979 128.077,120.013 123.654,121.201 121.377 C 121.494 120.815,121.735 120.071,121.737 119.724 C 121.743 118.145,124.997 112.787,127.546 110.159 C 135.144 102.326,150.721 101.899,158.373 109.314 C 162.950 113.750,164.584 117.887,164.607 125.099 C 164.627 131.276,164.672 131.121,160.491 139.064 C 159.166 141.583,159.041 149.024,160.278 151.807 C 164.388 161.056,185.799 176.012,194.084 175.422 L 195.850 175.296 196.094 171.739 C 196.229 169.783,196.739 166.759,197.228 165.020 C 197.716 163.281,198.379 160.879,198.700 159.684 C 199.022 158.488,199.445 157.341,199.642 157.134 C 199.839 156.928,200.000 156.418,200.000 156.002 C 200.000 155.585,200.254 154.420,200.565 153.413 C 202.838 146.045,202.928 140.072,200.826 135.968 C 200.171 134.690,195.862 131.650,193.541 130.828 C 186.431 128.312,184.687 126.706,183.985 122.026 C 183.631 119.670,184.296 119.542,186.508 121.541 C 188.818 123.627,193.879 124.985,194.657 123.727 C 195.779 121.911,188.416 115.810,185.101 115.810 C 183.030 115.810,180.362 116.598,179.607 117.432 C 177.417 119.852,176.796 113.647,178.954 110.904 C 181.081 108.200,186.611 106.933,188.704 108.670 C 189.573 109.391,190.410 108.940,191.174 107.338 C 192.916 103.684,199.397 104.022,207.459 108.187 C 209.900 109.447,209.881 109.504,209.881 100.570 L 209.881 92.490 271.802 92.490 L 333.723 92.490 333.465 101.482 M269.368 105.114 C 268.281 105.504,266.769 106.200,266.008 106.662 C 265.247 107.123,264.269 107.661,263.834 107.857 C 262.127 108.628,257.708 114.091,257.708 115.431 C 257.708 115.714,257.467 116.226,257.174 116.570 C 254.185 120.065,255.053 130.788,258.819 136.915 C 261.727 141.645,261.906 148.250,259.263 153.320 C 256.861 157.928,246.509 167.083,239.313 170.965 C 238.435 171.438,237.368 172.017,236.941 172.252 C 235.989 172.775,233.149 174.014,231.028 174.831 C 229.189 175.540,224.904 176.022,224.265 175.592 C 224.024 175.429,223.737 173.696,223.627 171.739 C 223.517 169.783,223.117 167.204,222.738 166.008 C 221.181 161.096,220.945 160.244,220.947 159.546 C 220.948 159.144,220.700 158.255,220.396 157.570 C 220.091 156.885,219.290 154.101,218.614 151.383 C 215.545 139.044,218.294 133.136,228.777 129.543 C 232.415 128.296,234.476 126.545,235.344 123.964 C 236.312 121.084,235.674 119.703,234.152 121.387 C 232.481 123.236,228.851 124.414,225.593 124.164 C 223.794 124.026,226.628 119.628,229.842 117.571 C 233.417 115.283,236.226 114.852,238.811 116.197 C 239.748 116.684,240.629 117.267,240.770 117.492 C 241.602 118.820,242.364 117.338,242.085 114.936 C 241.450 109.461,236.664 106.729,231.493 108.889 C 229.806 109.594,228.854 109.322,228.854 108.135 C 228.854 104.482,221.024 104.233,214.427 107.677 C 213.775 108.017,213.063 108.298,212.846 108.300 C 212.628 108.302,211.955 108.704,211.350 109.192 L 210.250 110.079 210.252 152.372 C 210.253 175.632,210.259 194.956,210.265 195.313 C 210.295 196.971,223.126 195.036,228.656 192.540 C 229.526 192.148,231.215 191.403,232.411 190.885 C 233.607 190.367,235.248 189.538,236.059 189.043 C 236.870 188.548,237.656 188.142,237.806 188.142 C 238.293 188.142,245.193 183.334,247.628 181.297 C 252.339 177.359,263.636 164.535,263.636 163.127 C 263.636 162.994,264.153 162.120,264.784 161.185 C 266.034 159.333,269.422 152.758,270.751 149.605 C 271.210 148.518,271.742 147.273,271.934 146.838 C 272.126 146.403,272.668 144.802,273.138 143.281 C 273.608 141.759,274.151 140.158,274.345 139.723 C 274.948 138.369,275.819 133.968,276.321 129.743 C 276.737 126.242,276.901 125.692,277.532 125.692 C 278.605 125.692,278.420 131.113,277.034 140.316 C 276.822 141.729,276.474 144.042,276.263 145.455 C 275.808 148.496,274.822 152.927,274.108 155.138 C 273.827 156.008,273.279 157.875,272.891 159.289 C 272.503 160.702,271.952 162.209,271.666 162.637 C 271.380 163.066,271.146 163.719,271.146 164.088 C 271.146 164.456,270.896 165.262,270.590 165.877 C 270.284 166.493,269.110 168.953,267.981 171.344 C 265.799 175.969,263.548 179.627,260.325 183.788 C 256.240 189.061,253.549 191.723,248.215 195.766 C 244.089 198.894,243.979 198.963,239.130 201.486 C 237.283 202.448,235.602 203.396,235.395 203.593 C 235.189 203.791,234.697 203.953,234.303 203.953 C 233.909 203.953,233.277 204.129,232.900 204.345 C 231.644 205.063,228.045 206.324,227.253 206.324 C 226.823 206.324,226.163 206.494,225.785 206.702 C 224.914 207.181,219.465 208.261,214.727 208.895 C 212.719 209.163,210.831 209.585,210.533 209.833 C 210.025 210.254,209.905 354.305,210.411 354.812 C 210.710 355.111,211.972 352.803,212.485 351.019 C 212.771 350.024,213.374 347.964,213.823 346.443 C 214.273 344.921,214.805 342.875,215.004 341.897 C 215.203 340.919,215.540 339.318,215.753 338.340 C 216.633 334.296,217.070 327.508,216.656 324.308 C 214.566 308.125,215.051 305.932,219.763 310.285 C 230.232 319.957,235.242 320.574,243.073 313.156 C 243.829 312.440,244.743 311.760,245.106 311.645 C 245.902 311.393,246.370 309.896,245.720 309.678 C 245.465 309.592,244.279 309.336,243.083 309.109 C 237.999 308.141,237.136 307.886,234.950 306.703 C 233.686 306.019,231.764 304.683,230.678 303.733 C 226.265 299.873,221.422 298.571,217.528 300.198 C 215.755 300.938,214.662 300.953,214.389 300.240 C 214.190 299.724,215.820 294.248,216.592 292.833 C 218.149 289.983,217.935 284.546,216.189 282.590 C 214.879 281.123,214.794 280.769,215.538 279.873 C 215.824 279.530,216.376 278.449,216.765 277.470 C 217.154 276.492,217.630 275.386,217.823 275.011 C 218.447 273.803,218.658 269.038,218.196 266.601 C 217.200 261.344,217.095 260.105,217.300 255.996 C 217.463 252.728,217.678 251.513,218.209 250.858 L 218.905 250.000 219.828 250.878 C 221.030 252.021,223.330 256.541,225.062 261.166 C 225.409 262.090,225.943 263.513,226.251 264.328 C 227.508 267.660,229.716 275.337,230.372 278.652 C 230.734 280.484,231.409 280.524,233.928 278.862 C 236.403 277.229,237.317 277.127,238.022 278.405 C 238.306 278.920,239.049 280.298,239.675 281.469 C 240.300 282.639,240.967 283.656,241.157 283.729 C 241.748 283.954,241.544 285.239,240.344 288.850 C 238.869 293.288,239.020 295.120,241.025 297.125 C 242.650 298.750,243.069 298.421,242.960 295.604 C 242.819 291.967,245.305 289.876,251.111 288.747 C 255.114 287.969,255.635 287.736,258.727 285.351 C 262.759 282.241,268.297 282.901,269.944 286.687 L 270.663 288.340 271.123 287.172 C 272.685 283.210,268.173 278.656,262.686 278.656 C 261.155 278.656,257.796 279.229,252.117 280.459 C 248.387 281.267,247.192 281.199,246.453 280.138 C 242.384 274.295,242.342 273.870,245.652 272.086 C 248.379 270.617,248.720 269.874,247.213 268.688 C 245.364 267.234,242.317 263.915,240.941 261.858 C 238.265 257.856,237.361 255.773,235.135 248.466 C 234.010 244.774,233.454 223.484,234.434 221.651 C 235.007 220.580,235.483 221.166,235.964 223.534 C 236.184 224.612,236.543 226.393,236.764 227.491 C 236.985 228.590,237.532 230.458,237.979 231.642 C 238.426 232.826,238.971 234.328,239.189 234.980 C 244.780 251.723,262.745 266.400,270.358 260.445 L 271.344 259.674 270.158 258.817 C 268.861 257.880,264.266 253.273,263.108 251.747 C 261.048 249.035,258.095 244.214,257.316 242.292 C 256.832 241.097,256.203 239.585,255.919 238.933 C 254.605 235.915,253.065 227.988,252.771 222.727 C 252.146 211.534,252.250 209.091,253.356 209.091 C 253.556 209.091,253.826 209.758,253.956 210.573 C 255.314 219.084,261.168 230.329,267.025 235.678 C 276.038 243.909,282.668 246.532,286.880 243.533 L 288.069 242.686 284.440 239.031 C 273.172 227.682,268.798 216.798,268.120 198.419 C 267.889 192.151,267.912 191.869,268.704 191.161 C 269.517 190.435,269.531 190.440,269.758 191.556 C 269.884 192.179,270.158 193.231,270.367 193.894 C 270.575 194.558,270.909 195.892,271.109 196.859 C 271.448 198.496,273.453 204.336,274.290 206.126 C 274.494 206.561,275.024 207.748,275.468 208.763 C 280.891 221.158,296.900 230.606,301.913 224.371 C 302.389 223.778,301.775 222.134,301.078 222.134 C 300.031 222.134,290.909 212.088,290.909 210.935 C 290.909 210.716,290.669 210.256,290.375 209.913 C 290.081 209.569,289.423 208.221,288.911 206.917 C 288.399 205.613,287.860 204.368,287.712 204.150 C 287.564 203.933,287.313 203.132,287.154 202.372 C 286.995 201.611,286.728 200.810,286.560 200.593 C 286.393 200.375,286.124 199.404,285.964 198.434 C 285.804 197.464,285.529 196.397,285.353 196.063 C 285.176 195.728,284.661 193.231,284.208 190.514 C 283.755 187.796,283.126 184.061,282.810 182.213 C 282.494 180.366,282.135 177.075,282.013 174.901 C 281.890 172.727,281.604 169.348,281.376 167.391 C 280.939 163.625,281.276 161.660,282.359 161.660 C 283.034 161.660,283.399 162.505,283.399 164.068 C 283.399 165.173,284.626 171.207,285.361 173.715 C 286.908 178.997,287.511 180.885,287.761 181.225 C 287.921 181.443,288.183 182.237,288.345 182.991 C 288.506 183.745,288.787 184.634,288.969 184.967 C 289.151 185.300,289.673 186.462,290.129 187.549 C 291.398 190.578,292.192 192.140,293.379 193.945 C 293.977 194.853,294.466 195.728,294.466 195.888 C 294.466 196.048,294.729 196.460,295.049 196.805 C 295.370 197.149,296.199 198.109,296.891 198.939 C 300.948 203.796,307.740 206.849,311.183 205.364 C 313.187 204.501,313.341 203.856,311.969 202.083 C 306.769 195.363,304.807 190.415,302.523 178.261 C 301.901 174.956,301.826 172.319,301.892 156.266 C 302.019 125.355,299.161 114.396,289.247 107.775 C 284.390 104.531,274.634 103.226,269.368 105.114 M225.791 109.246 C 226.515 109.795,226.754 111.462,226.109 111.462 C 225.904 111.462,225.059 112.084,224.231 112.844 C 222.846 114.116,222.531 114.226,220.237 114.227 C 218.741 114.228,217.264 114.479,216.536 114.856 C 213.914 116.211,214.216 113.938,216.992 111.427 C 219.547 109.115,224.123 107.980,225.791 109.246 M194.131 109.413 C 192.244 110.707,195.792 113.220,200.593 113.989 C 204.600 114.632,205.274 114.408,204.278 112.766 C 202.859 110.427,195.971 108.152,194.131 109.413 M281.236 114.812 C 283.782 117.358,283.449 120.393,280.406 122.388 C 276.539 124.921,271.696 119.570,274.291 115.633 C 276.211 112.720,278.834 112.410,281.236 114.812 M139.180 114.824 C 136.791 116.983,136.910 119.853,139.478 122.021 C 142.143 124.272,146.551 121.567,146.141 117.932 C 145.691 113.935,141.992 112.284,139.180 114.824 M271.937 122.395 C 272.548 122.756,273.421 123.714,273.876 124.524 C 276.762 129.659,269.814 134.142,266.237 129.453 C 263.259 125.548,267.786 119.943,271.937 122.395 M148.375 122.522 C 144.178 124.217,145.646 131.225,150.198 131.225 C 153.512 131.225,155.724 127.067,153.894 124.274 C 152.706 122.461,150.365 121.718,148.375 122.522 M287.291 123.551 C 292.237 126.503,289.740 133.778,284.163 132.663 C 279.720 131.774,279.840 124.069,284.312 123.201 C 285.927 122.887,286.240 122.924,287.291 123.551 M133.285 123.766 C 128.476 125.153,130.620 133.837,135.472 132.620 C 139.623 131.578,140.374 125.481,136.548 123.882 C 135.037 123.251,135.070 123.252,133.285 123.766 M142.567 129.200 C 141.903 132.430,142.199 135.497,144.156 145.652 C 145.594 153.118,148.214 162.746,149.233 164.314 C 149.546 164.796,149.802 165.394,149.802 165.644 C 149.802 169.401,160.755 185.936,166.836 191.360 C 168.386 192.742,169.946 194.157,170.302 194.504 C 172.583 196.726,185.331 203.953,186.969 203.953 C 187.186 203.953,187.671 204.129,188.049 204.345 C 190.474 205.731,200.039 208.010,207.153 208.895 C 209.821 209.227,209.923 208.974,209.794 202.318 L 209.684 196.640 206.291 196.408 C 204.425 196.280,202.706 196.057,202.471 195.912 C 202.236 195.766,200.828 195.395,199.342 195.087 C 194.052 193.990,191.888 193.248,186.173 190.567 C 172.636 184.218,158.952 170.017,151.270 154.348 C 146.880 145.394,145.964 142.575,143.176 129.447 L 142.841 127.866 142.567 129.200 " stroke="none" fill="#9a3221" fill-rule="evenodd"></path><path id="path1" d="M86.460 38.178 C 85.973 38.664,86.127 39.130,86.775 39.130 C 88.263 39.130,92.704 43.013,94.390 45.789 C 98.020 51.764,97.277 59.385,92.592 64.229 C 85.586 71.473,70.835 68.624,68.568 59.590 C 67.653 55.947,66.245 57.170,66.760 61.160 C 66.978 62.848,67.251 65.563,67.366 67.194 C 68.032 76.562,68.867 87.294,69.210 90.909 C 69.427 93.192,69.764 97.372,69.959 100.198 C 70.330 105.591,70.886 112.271,71.570 119.565 C 71.794 121.957,72.134 126.225,72.326 129.051 C 72.518 131.877,72.864 136.235,73.093 138.735 C 73.854 147.016,74.359 153.101,74.717 158.300 C 74.911 161.126,75.437 167.885,75.887 173.320 C 76.699 183.135,77.428 192.359,78.231 202.964 C 78.461 206.008,78.913 211.433,79.235 215.020 C 79.557 218.607,80.095 225.010,80.432 229.249 C 80.768 233.488,81.235 238.824,81.471 241.107 C 81.706 243.389,82.036 247.658,82.205 250.593 C 82.374 253.528,82.709 257.974,82.949 260.474 C 83.378 264.944,83.661 268.458,84.824 283.794 C 86.489 305.742,87.227 314.522,87.965 321.159 C 88.280 323.992,88.538 327.674,88.538 329.341 C 88.538 331.008,88.711 333.226,88.923 334.269 C 89.284 336.047,89.990 345.111,90.396 353.158 C 90.568 356.582,91.060 358.110,91.764 357.406 C 91.948 357.222,92.098 291.691,92.096 211.783 L 92.093 66.495 93.099 65.836 C 94.034 65.224,102.604 65.181,213.159 65.233 C 348.941 65.297,333.597 65.369,333.597 64.671 C 333.597 64.049,332.412 63.650,330.541 63.642 C 329.838 63.639,328.060 63.465,326.588 63.256 C 323.999 62.887,321.671 62.641,309.486 61.446 C 306.334 61.137,301.354 60.627,298.419 60.313 C 295.484 59.999,291.126 59.546,288.735 59.306 C 286.344 59.066,282.342 58.607,279.842 58.287 C 277.342 57.966,274.496 57.707,273.518 57.711 C 272.540 57.714,269.783 57.457,267.391 57.139 C 261.553 56.363,255.463 55.674,251.383 55.326 C 249.536 55.169,246.334 54.838,244.269 54.591 C 242.204 54.343,237.846 53.875,234.585 53.549 C 231.324 53.223,226.344 52.690,223.518 52.363 C 216.287 51.529,211.415 51.031,204.348 50.407 C 200.978 50.109,196.887 49.686,195.257 49.467 C 193.626 49.248,189.180 48.780,185.375 48.427 C 181.571 48.074,176.761 47.527,174.686 47.212 C 172.612 46.898,170.121 46.637,169.153 46.633 C 168.184 46.630,165.791 46.363,163.834 46.042 C 161.877 45.721,159.387 45.457,158.300 45.457 C 157.213 45.456,154.190 45.186,151.581 44.856 C 142.225 43.673,140.442 43.479,135.375 43.092 C 132.549 42.876,128.903 42.524,127.273 42.309 C 125.642 42.095,122.352 41.719,119.960 41.475 C 117.569 41.230,113.211 40.781,110.277 40.477 C 107.342 40.173,102.984 39.750,100.593 39.536 C 98.202 39.322,95.356 38.975,94.269 38.766 C 91.252 38.184,86.789 37.848,86.460 38.178 M209.881 100.570 C 209.881 109.504,209.900 109.447,207.459 108.187 C 199.397 104.022,192.916 103.684,191.174 107.338 C 190.410 108.940,189.573 109.391,188.704 108.670 C 186.611 106.933,181.081 108.200,178.954 110.904 C 176.796 113.647,177.417 119.852,179.607 117.432 C 180.362 116.598,183.030 115.810,185.101 115.810 C 188.416 115.810,195.779 121.911,194.657 123.727 C 193.879 124.985,188.818 123.627,186.508 121.541 C 184.296 119.542,183.631 119.670,183.985 122.026 C 184.687 126.706,186.431 128.312,193.541 130.828 C 195.862 131.650,200.171 134.690,200.826 135.968 C 202.928 140.072,202.838 146.045,200.565 153.413 C 200.254 154.420,200.000 155.585,200.000 156.002 C 200.000 156.418,199.839 156.928,199.642 157.134 C 199.445 157.341,199.022 158.488,198.700 159.684 C 198.379 160.879,197.716 163.281,197.228 165.020 C 196.739 166.759,196.229 169.783,196.094 171.739 L 195.850 175.296 194.084 175.422 C 185.799 176.012,164.388 161.056,160.278 151.807 C 159.041 149.024,159.166 141.583,160.491 139.064 C 164.672 131.121,164.627 131.276,164.607 125.099 C 164.584 117.887,162.950 113.750,158.373 109.314 C 150.721 101.899,135.144 102.326,127.546 110.159 C 124.997 112.787,121.743 118.145,121.737 119.724 C 121.735 120.071,121.494 120.815,121.201 121.377 C 120.013 123.654,118.979 128.077,118.161 134.387 C 117.977 135.800,117.812 145.138,117.794 155.138 C 117.743 183.120,115.499 193.725,107.864 202.085 C 104.554 205.709,110.315 207.589,116.008 204.743 C 125.070 200.212,132.786 186.381,135.963 168.972 C 137.506 160.519,139.243 160.662,138.349 169.170 C 138.110 171.453,137.738 175.366,137.523 177.866 C 137.308 180.366,137.029 182.678,136.904 183.004 C 136.779 183.330,136.542 184.575,136.378 185.771 C 136.214 186.966,135.880 188.745,135.636 189.723 C 135.392 190.702,134.904 192.925,134.552 194.664 C 132.879 202.918,130.360 209.125,126.720 213.962 C 124.502 216.909,118.903 222.530,118.186 222.530 C 117.371 222.530,117.796 224.422,118.752 225.047 C 123.109 227.902,127.295 227.204,133.399 222.604 C 136.676 220.134,142.292 214.260,142.292 213.303 C 142.292 213.182,142.802 212.318,143.425 211.383 C 145.732 207.922,148.361 201.013,149.539 195.319 C 150.214 192.057,150.300 191.898,151.206 192.245 C 152.186 192.622,151.408 206.104,150.039 212.451 C 147.588 223.814,141.190 234.575,132.806 241.434 C 129.403 244.219,137.109 246.277,142.095 243.915 C 152.911 238.790,165.571 222.202,165.618 213.091 C 165.632 210.342,166.667 209.459,167.263 211.686 C 167.633 213.068,166.942 225.773,166.405 227.470 C 166.198 228.123,165.863 229.901,165.660 231.423 C 164.781 238.018,161.388 245.730,156.704 251.779 C 155.927 252.782,150.723 257.855,149.538 258.763 L 148.419 259.622 149.275 260.427 C 149.745 260.870,150.592 261.349,151.156 261.490 C 151.720 261.632,152.279 261.906,152.399 262.099 C 154.232 265.066,166.638 257.613,172.332 250.123 C 172.658 249.694,173.504 248.601,174.212 247.695 C 174.920 246.789,175.634 245.870,175.799 245.652 C 177.320 243.643,181.423 235.394,181.423 234.345 C 181.423 234.108,181.669 233.353,181.969 232.668 C 182.581 231.274,183.650 227.109,184.013 224.704 C 185.222 216.689,186.659 228.576,185.783 239.347 C 185.231 246.126,183.281 254.874,182.167 255.562 C 181.975 255.681,181.818 256.057,181.818 256.397 C 181.818 258.322,175.440 266.659,172.431 268.667 C 170.892 269.694,171.325 270.606,174.111 272.209 C 176.800 273.755,177.255 274.598,176.094 275.882 C 175.772 276.238,175.091 277.319,174.580 278.284 C 173.236 280.827,172.593 280.936,166.154 279.702 C 153.870 277.349,148.221 279.427,148.221 286.299 C 148.221 288.242,149.208 289.638,149.625 288.286 C 151.266 282.976,157.125 281.842,161.660 285.955 C 163.700 287.805,168.761 289.706,171.678 289.719 C 174.490 289.730,176.871 292.600,176.875 295.981 C 176.878 298.647,177.334 298.867,179.202 297.105 C 180.961 295.447,181.201 292.113,179.842 288.245 C 178.868 285.475,178.846 284.179,179.749 282.958 C 180.133 282.440,180.869 281.215,181.385 280.237 C 182.795 277.562,183.219 277.196,184.079 277.912 C 184.466 278.234,185.469 278.845,186.308 279.269 C 187.147 279.693,187.922 280.262,188.030 280.534 C 188.583 281.923,189.679 280.629,190.143 278.040 C 190.374 276.749,190.976 274.447,191.481 272.925 C 191.986 271.403,192.708 269.091,193.085 267.787 C 194.583 262.609,195.124 261.234,198.043 255.203 C 200.170 250.805,200.834 250.072,201.806 251.044 C 202.654 251.892,202.664 262.265,201.820 265.399 C 200.618 269.865,201.314 275.069,203.620 278.850 C 204.556 280.386,204.541 281.521,203.572 282.398 C 201.300 284.454,202.325 293.403,205.550 299.663 C 206.049 300.632,204.607 300.864,203.054 300.064 C 199.298 298.130,194.365 299.337,189.399 303.405 C 186.331 305.919,182.441 307.880,179.717 308.285 C 177.998 308.541,175.862 309.015,173.204 309.732 C 172.444 309.937,173.307 311.342,174.407 311.690 C 174.896 311.845,176.603 313.090,178.199 314.456 C 185.054 320.325,190.236 319.892,197.697 312.829 C 204.425 306.459,204.803 306.774,203.775 317.892 C 202.654 330.010,203.264 338.875,205.711 346.047 C 206.008 346.917,206.617 348.785,207.066 350.198 C 209.387 357.507,209.705 357.966,211.807 357.059 C 212.596 356.718,213.864 356.264,214.625 356.049 C 215.385 355.834,216.177 355.496,216.383 355.299 C 216.590 355.102,217.035 354.940,217.372 354.938 C 217.708 354.937,218.518 354.656,219.170 354.313 C 219.822 353.970,221.423 353.241,222.727 352.692 C 226.684 351.026,230.110 349.372,231.751 348.337 C 232.607 347.796,234.573 346.692,236.120 345.883 C 240.630 343.524,248.679 338.227,252.386 335.178 C 253.311 334.417,254.656 333.350,255.374 332.806 C 260.681 328.793,269.946 319.573,276.027 312.253 C 281.116 306.127,281.550 305.581,282.781 303.755 C 283.368 302.885,284.280 301.686,284.809 301.090 C 285.338 300.494,285.771 299.897,285.771 299.762 C 285.771 299.627,287.075 297.536,288.669 295.114 C 290.263 292.693,292.175 289.644,292.918 288.340 C 293.661 287.036,294.476 285.613,294.729 285.178 C 294.982 284.743,295.656 283.498,296.227 282.411 C 296.798 281.324,297.892 279.279,298.658 277.866 C 299.423 276.453,300.593 274.051,301.256 272.530 C 301.919 271.008,303.072 268.518,303.817 266.996 C 304.562 265.474,305.906 262.362,306.803 260.079 C 307.700 257.796,308.582 255.760,308.762 255.553 C 308.943 255.347,309.091 254.882,309.091 254.521 C 309.091 254.160,309.610 252.721,310.243 251.323 C 310.877 249.925,311.520 248.119,311.672 247.311 C 311.823 246.503,312.105 245.744,312.298 245.624 C 312.491 245.505,312.648 245.134,312.648 244.799 C 312.648 244.465,312.896 243.630,313.200 242.945 C 313.503 242.260,314.120 240.455,314.570 238.933 C 315.020 237.411,315.844 234.629,316.400 232.751 C 317.626 228.612,318.527 225.249,321.095 215.217 C 322.146 211.111,324.862 197.455,325.891 191.107 C 326.243 188.933,326.790 185.909,327.105 184.387 C 327.420 182.866,327.677 180.998,327.675 180.237 C 327.674 179.476,327.840 178.231,328.044 177.470 C 328.408 176.119,328.807 173.013,329.646 165.020 C 329.874 162.846,330.233 159.644,330.444 157.905 C 331.611 148.279,332.714 127.674,333.465 101.482 L 333.723 92.490 271.802 92.490 L 209.881 92.490 209.881 100.570 M282.732 104.974 C 297.963 109.623,302.039 120.536,301.892 156.266 C 301.826 172.319,301.901 174.956,302.523 178.261 C 304.807 190.415,306.769 195.363,311.969 202.083 C 313.341 203.856,313.187 204.501,311.183 205.364 C 307.740 206.849,300.948 203.796,296.891 198.939 C 296.199 198.109,295.370 197.149,295.049 196.805 C 294.729 196.460,294.466 196.048,294.466 195.888 C 294.466 195.728,293.977 194.853,293.379 193.945 C 292.192 192.140,291.398 190.578,290.129 187.549 C 289.673 186.462,289.151 185.300,288.969 184.967 C 288.787 184.634,288.506 183.745,288.345 182.991 C 288.183 182.237,287.921 181.443,287.761 181.225 C 287.511 180.885,286.908 178.997,285.361 173.715 C 284.626 171.207,283.399 165.173,283.399 164.068 C 283.399 162.505,283.034 161.660,282.359 161.660 C 281.276 161.660,280.939 163.625,281.376 167.391 C 281.604 169.348,281.890 172.727,282.013 174.901 C 282.135 177.075,282.494 180.366,282.810 182.213 C 283.126 184.061,283.755 187.796,284.208 190.514 C 284.661 193.231,285.176 195.728,285.353 196.063 C 285.529 196.397,285.804 197.464,285.964 198.434 C 286.124 199.404,286.393 200.375,286.560 200.593 C 286.728 200.810,286.995 201.611,287.154 202.372 C 287.313 203.132,287.564 203.933,287.712 204.150 C 287.860 204.368,288.399 205.613,288.911 206.917 C 289.423 208.221,290.081 209.569,290.375 209.913 C 290.669 210.256,290.909 210.716,290.909 210.935 C 290.909 212.088,300.031 222.134,301.078 222.134 C 301.775 222.134,302.389 223.778,301.913 224.371 C 296.900 230.606,280.891 221.158,275.468 208.763 C 275.024 207.748,274.494 206.561,274.290 206.126 C 273.453 204.336,271.448 198.496,271.109 196.859 C 270.909 195.892,270.575 194.558,270.367 193.894 C 270.158 193.231,269.884 192.179,269.758 191.556 C 269.531 190.440,269.517 190.435,268.704 191.161 C 267.912 191.869,267.889 192.151,268.120 198.419 C 268.798 216.798,273.172 227.682,284.440 239.031 L 288.069 242.686 286.880 243.533 C 282.668 246.532,276.038 243.909,267.025 235.678 C 261.168 230.329,255.314 219.084,253.956 210.573 C 253.826 209.758,253.556 209.091,253.356 209.091 C 252.250 209.091,252.146 211.534,252.771 222.727 C 253.065 227.988,254.605 235.915,255.919 238.933 C 256.203 239.585,256.832 241.097,257.316 242.292 C 259.352 247.313,265.902 255.743,270.158 258.817 L 271.344 259.674 270.358 260.445 C 262.745 266.400,244.780 251.723,239.189 234.980 C 238.971 234.328,238.426 232.826,237.979 231.642 C 237.532 230.458,236.985 228.590,236.764 227.491 C 236.543 226.393,236.184 224.612,235.964 223.534 C 235.483 221.166,235.007 220.580,234.434 221.651 C 233.454 223.484,234.010 244.774,235.135 248.466 C 237.361 255.773,238.265 257.856,240.941 261.858 C 242.317 263.915,245.364 267.234,247.213 268.688 C 248.720 269.874,248.379 270.617,245.652 272.086 C 242.342 273.870,242.384 274.295,246.453 280.138 C 247.192 281.199,248.387 281.267,252.117 280.459 C 257.796 279.229,261.155 278.656,262.686 278.656 C 268.173 278.656,272.685 283.210,271.123 287.172 L 270.663 288.340 269.944 286.687 C 268.297 282.901,262.759 282.241,258.727 285.351 C 255.635 287.736,255.114 287.969,251.111 288.747 C 245.305 289.876,242.819 291.967,242.960 295.604 C 243.069 298.421,242.650 298.750,241.025 297.125 C 239.020 295.120,238.869 293.288,240.344 288.850 C 241.544 285.239,241.748 283.954,241.157 283.729 C 240.967 283.656,240.300 282.639,239.675 281.469 C 239.049 280.298,238.306 278.920,238.022 278.405 C 237.317 277.127,236.403 277.229,233.928 278.862 C 231.409 280.524,230.734 280.484,230.372 278.652 C 229.716 275.337,227.508 267.660,226.251 264.328 C 225.943 263.513,225.409 262.090,225.062 261.166 C 223.330 256.541,221.030 252.021,219.828 250.878 L 218.905 250.000 218.209 250.858 C 217.678 251.513,217.463 252.728,217.300 255.996 C 217.095 260.105,217.200 261.344,218.196 266.601 C 218.658 269.038,218.447 273.803,217.823 275.011 C 217.630 275.386,217.154 276.492,216.765 277.470 C 216.376 278.449,215.824 279.530,215.538 279.873 C 214.794 280.769,214.879 281.123,216.189 282.590 C 217.935 284.546,218.149 289.983,216.592 292.833 C 215.820 294.248,214.190 299.724,214.389 300.240 C 214.662 300.953,215.755 300.938,217.528 300.198 C 221.422 298.571,226.265 299.873,230.678 303.733 C 231.764 304.683,233.686 306.019,234.950 306.703 C 237.136 307.886,237.999 308.141,243.083 309.109 C 244.279 309.336,245.465 309.592,245.720 309.678 C 246.370 309.896,245.902 311.393,245.106 311.645 C 244.743 311.760,243.829 312.440,243.073 313.156 C 235.242 320.574,230.232 319.957,219.763 310.285 C 215.051 305.932,214.566 308.125,216.656 324.308 C 217.070 327.508,216.633 334.296,215.753 338.340 C 215.540 339.318,215.203 340.919,215.004 341.897 C 214.805 342.875,214.273 344.921,213.823 346.443 C 213.374 347.964,212.771 350.024,212.485 351.019 C 211.972 352.803,210.710 355.111,210.411 354.812 C 209.905 354.305,210.025 210.254,210.533 209.833 C 210.831 209.585,212.719 209.163,214.727 208.895 C 219.465 208.261,224.914 207.181,225.785 206.702 C 226.163 206.494,226.823 206.324,227.253 206.324 C 228.045 206.324,231.644 205.063,232.900 204.345 C 233.277 204.129,233.909 203.953,234.303 203.953 C 234.697 203.953,235.189 203.791,235.395 203.593 C 235.602 203.396,237.283 202.448,239.130 201.486 C 243.979 198.963,244.089 198.894,248.215 195.766 C 253.549 191.723,256.240 189.061,260.325 183.788 C 263.548 179.627,265.799 175.969,267.981 171.344 C 269.110 168.953,270.284 166.493,270.590 165.877 C 270.896 165.262,271.146 164.456,271.146 164.088 C 271.146 163.719,271.380 163.066,271.666 162.637 C 271.952 162.209,272.503 160.702,272.891 159.289 C 273.279 157.875,273.827 156.008,274.108 155.138 C 274.822 152.927,275.808 148.496,276.263 145.455 C 276.474 144.042,276.822 141.729,277.034 140.316 C 278.420 131.113,278.605 125.692,277.532 125.692 C 276.901 125.692,276.737 126.242,276.321 129.743 C 275.819 133.968,274.948 138.369,274.345 139.723 C 274.151 140.158,273.608 141.759,273.138 143.281 C 272.668 144.802,272.126 146.403,271.934 146.838 C 271.742 147.273,271.210 148.518,270.751 149.605 C 269.422 152.758,266.034 159.333,264.784 161.185 C 264.153 162.120,263.636 162.994,263.636 163.127 C 263.636 164.535,252.339 177.359,247.628 181.297 C 245.193 183.334,238.293 188.142,237.806 188.142 C 237.656 188.142,236.870 188.548,236.059 189.043 C 235.248 189.538,233.607 190.367,232.411 190.885 C 231.215 191.403,229.526 192.148,228.656 192.540 C 223.126 195.036,210.295 196.971,210.265 195.313 C 210.259 194.956,210.253 175.632,210.252 152.372 L 210.250 110.079 211.350 109.192 C 211.955 108.704,212.628 108.302,212.846 108.300 C 213.063 108.298,213.775 108.017,214.427 107.677 C 221.024 104.233,228.854 104.482,228.854 108.135 C 228.854 109.322,229.806 109.594,231.493 108.889 C 236.664 106.729,241.450 109.461,242.085 114.936 C 242.364 117.338,241.602 118.820,240.770 117.492 C 238.209 113.403,230.532 115.505,225.845 121.579 C 224.731 123.022,224.627 124.090,225.593 124.164 C 228.851 124.414,232.481 123.236,234.152 121.387 C 235.674 119.703,236.312 121.084,235.344 123.964 C 234.476 126.545,232.415 128.296,228.777 129.543 C 218.294 133.136,215.545 139.044,218.614 151.383 C 219.290 154.101,220.091 156.885,220.396 157.570 C 220.700 158.255,220.948 159.144,220.947 159.546 C 220.945 160.244,221.181 161.096,222.738 166.008 C 223.117 167.204,223.517 169.783,223.627 171.739 C 223.737 173.696,224.024 175.429,224.265 175.592 C 224.904 176.022,229.189 175.540,231.028 174.831 C 233.149 174.014,235.989 172.775,236.941 172.252 C 237.368 172.017,238.435 171.438,239.313 170.965 C 246.509 167.083,256.861 157.928,259.263 153.320 C 261.906 148.250,261.727 141.645,258.819 136.915 C 255.053 130.788,254.185 120.065,257.174 116.570 C 257.467 116.226,257.708 115.714,257.708 115.431 C 257.708 114.091,262.127 108.628,263.834 107.857 C 264.269 107.661,265.247 107.123,266.008 106.662 C 269.845 104.336,277.960 103.517,282.732 104.974 M220.814 109.245 C 217.771 109.968,213.816 113.974,214.987 115.145 C 215.173 115.331,215.868 115.201,216.536 114.856 C 217.264 114.479,218.741 114.228,220.237 114.227 C 222.531 114.226,222.846 114.116,224.231 112.844 C 225.059 112.084,225.904 111.462,226.109 111.462 C 226.754 111.462,226.515 109.795,225.791 109.246 C 224.970 108.623,223.430 108.622,220.814 109.245 M201.619 110.584 C 203.765 111.783,205.194 113.550,204.533 114.189 C 203.137 115.540,194.131 112.433,193.736 110.464 C 193.372 108.652,198.293 108.727,201.619 110.584 M276.364 113.772 C 273.194 115.462,272.601 118.810,275.012 121.396 C 277.377 123.930,280.339 123.535,282.231 120.433 C 284.567 116.601,280.250 111.700,276.364 113.772 M144.786 114.960 C 148.547 118.720,143.507 125.424,139.478 122.021 C 136.910 119.853,136.791 116.983,139.180 114.824 C 141.152 113.043,142.912 113.086,144.786 114.960 M267.770 122.476 C 265.085 124.113,264.432 127.086,266.237 129.453 C 269.814 134.142,276.762 129.659,273.876 124.524 C 272.394 121.887,270.033 121.095,267.770 122.476 M152.135 122.707 C 156.173 124.795,154.711 131.225,150.198 131.225 C 148.775 131.225,148.326 131.008,147.188 129.765 C 143.706 125.964,147.624 120.375,152.135 122.707 M284.312 123.201 C 279.840 124.069,279.720 131.774,284.163 132.663 C 289.740 133.778,292.237 126.503,287.291 123.551 C 286.240 122.924,285.927 122.887,284.312 123.201 M136.548 123.882 C 140.374 125.481,139.623 131.578,135.472 132.620 C 130.620 133.837,128.476 125.153,133.285 123.766 C 135.070 123.252,135.037 123.251,136.548 123.882 M144.322 134.783 C 149.449 158.540,166.583 181.378,186.173 190.567 C 191.888 193.248,194.052 193.990,199.342 195.087 C 200.828 195.395,202.236 195.766,202.471 195.912 C 202.706 196.057,204.425 196.280,206.291 196.408 L 209.684 196.640 209.794 202.318 C 209.923 208.974,209.821 209.227,207.153 208.895 C 200.039 208.010,190.474 205.731,188.049 204.345 C 187.671 204.129,187.186 203.953,186.969 203.953 C 185.331 203.953,172.583 196.726,170.302 194.504 C 169.946 194.157,168.386 192.742,166.836 191.360 C 160.755 185.936,149.802 169.401,149.802 165.644 C 149.802 165.394,149.546 164.796,149.233 164.314 C 148.214 162.746,145.594 153.118,144.156 145.652 C 142.199 135.497,141.903 132.430,142.567 129.200 L 142.841 127.866 143.176 129.447 C 143.361 130.316,143.877 132.717,144.322 134.783 " stroke="none" fill="#f5c291" fill-rule="evenodd"></path></g></svg>